<?xml version="1.0" encoding="UTF-8" standalone="no"?>
<!DOCTYPE svg PUBLIC "-//W3C//DTD SVG 1.1//EN"
 "http://www.w3.org/Graphics/SVG/1.1/DTD/svg11.dtd">
<!-- Generated by graphviz version 2.42.4 (0)
 -->
<!-- Title: G Pages: 1 -->
<svg width="444pt" height="739pt"
 viewBox="0.00 0.00 443.99 739.00" xmlns="http://www.w3.org/2000/svg" xmlns:xlink="http://www.w3.org/1999/xlink">
<g id="graph0" class="graph" transform="scale(1 1) rotate(0) translate(18 721)">
<title>G</title>
<polygon fill="white" stroke="transparent" points="-18,18 -18,-721 425.99,-721 425.99,18 -18,18"/>
<g id="clust1" class="cluster">
<title>cluster_system</title>
<path fill="white" stroke="#9cb3c5" d="M183,-8C183,-8 387.99,-8 387.99,-8 393.99,-8 399.99,-14 399.99,-20 399.99,-20 399.99,-683 399.99,-683 399.99,-689 393.99,-695 387.99,-695 387.99,-695 183,-695 183,-695 177,-695 171,-689 171,-683 171,-683 171,-20 171,-20 171,-14 177,-8 183,-8"/>
<text text-anchor="middle" x="285.5" y="-679.8" font-family="Arial" font-size="14.00">PlayConnect</text>
</g>
<!-- login -->
<g id="node1" class="node">
<title>login</title>
<ellipse fill="#f8fbfd" stroke="#34506b" cx="285.5" cy="-238" rx="77.63" ry="18"/>
<text text-anchor="middle" x="285.5" y="-235.5" font-family="Arial" font-size="10.00" fill="#172b3a">Accedere alla piattaforma</text>
</g>
<!-- games -->
<g id="node2" class="node">
<title>games</title>
<ellipse fill="#f8fbfd" stroke="#34506b" cx="285.5" cy="-646" rx="73.01" ry="18"/>
<text text-anchor="middle" x="285.5" y="-643.5" font-family="Arial" font-size="10.00" fill="#172b3a">Vedere giochi disponibili</text>
</g>
<!-- personal -->
<g id="node3" class="node">
<title>personal</title>
<ellipse fill="#f8fbfd" stroke="#34506b" cx="285.5" cy="-578" rx="91.21" ry="18"/>
<text text-anchor="middle" x="285.5" y="-575.5" font-family="Arial" font-size="10.00" fill="#172b3a">Consultare partite e statistiche</text>
</g>
<!-- tournaments -->
<g id="node4" class="node">
<title>tournaments</title>
<ellipse fill="#f8fbfd" stroke="#34506b" cx="285.5" cy="-442" rx="79.32" ry="18"/>
<text text-anchor="middle" x="285.5" y="-439.5" font-family="Arial" font-size="10.00" fill="#172b3a">Vedere tornei e classifiche</text>
</g>
<!-- manage_local -->
<g id="node5" class="node">
<title>manage_local</title>
<ellipse fill="#f8fbfd" stroke="#34506b" cx="285.5" cy="-374" rx="86.6" ry="18"/>
<text text-anchor="middle" x="285.5" y="-371.5" font-family="Arial" font-size="10.00" fill="#172b3a">Gestire locale, giochi e utenti</text>
</g>
<!-- matches -->
<g id="node6" class="node">
<title>matches</title>
<ellipse fill="#f8fbfd" stroke="#34506b" cx="285.5" cy="-510" rx="82.48" ry="18"/>
<text text-anchor="middle" x="285.5" y="-507.5" font-family="Arial" font-size="10.00" fill="#172b3a">Avviare e controllare partite</text>
</g>
<!-- devices -->
<g id="node7" class="node">
<title>devices</title>
<ellipse fill="#f8fbfd" stroke="#34506b" cx="285.5" cy="-306" rx="106.49" ry="18"/>
<text text-anchor="middle" x="285.5" y="-303.5" font-family="Arial" font-size="10.00" fill="#172b3a">Configurare edge, sensori e attuatori</text>
</g>
<!-- types -->
<g id="node8" class="node">
<title>types</title>
<ellipse fill="#f8fbfd" stroke="#34506b" cx="285.5" cy="-170" rx="84.9" ry="18"/>
<text text-anchor="middle" x="285.5" y="-167.5" font-family="Arial" font-size="10.00" fill="#172b3a">Definire tipi e regole di gioco</text>
</g>
<!-- platform -->
<g id="node9" class="node">
<title>platform</title>
<ellipse fill="#f8fbfd" stroke="#34506b" cx="285.5" cy="-34" rx="84.17" ry="18"/>
<text text-anchor="middle" x="285.5" y="-31.5" font-family="Arial" font-size="10.00" fill="#172b3a">Gestire utenti, locali e tornei</text>
</g>
<!-- global_stats -->
<g id="node10" class="node">
<title>global_stats</title>
<ellipse fill="#f8fbfd" stroke="#34506b" cx="285.5" cy="-102" rx="86.6" ry="18"/>
<text text-anchor="middle" x="285.5" y="-99.5" font-family="Arial" font-size="10.00" fill="#172b3a">Consultare statistiche globali</text>
</g>
<!-- player -->
<g id="node11" class="node">
<title>player</title>
<path fill="#eaf1f7" stroke="#34506b" d="M82.5,-528C82.5,-528 49.5,-528 49.5,-528 43.5,-528 37.5,-522 37.5,-516 37.5,-516 37.5,-504 37.5,-504 37.5,-498 43.5,-492 49.5,-492 49.5,-492 82.5,-492 82.5,-492 88.5,-492 94.5,-498 94.5,-504 94.5,-504 94.5,-516 94.5,-516 94.5,-522 88.5,-528 82.5,-528"/>
<text text-anchor="middle" x="66" y="-507.5" font-family="Arial" font-size="10.00" fill="#172b3a">Giocatore</text>
</g>
<!-- player&#45;&gt;login -->
<g id="edge1" class="edge">
<title>player&#45;&gt;login</title>
<path fill="none" stroke="#526d82" d="M80.94,-491.75C95.43,-472.03 117.94,-439.21 132,-408 157.83,-350.67 126.8,-316.72 171,-272 181.72,-261.15 195.75,-253.74 210.28,-248.67"/>
<polygon fill="#526d82" stroke="#526d82" points="211.07,-250.99 216.97,-246.51 209.56,-246.33 211.07,-250.99"/>
</g>
<!-- player&#45;&gt;games -->
<g id="edge2" class="edge">
<title>player&#45;&gt;games</title>
<path fill="none" stroke="#526d82" d="M80.83,-528.2C99.08,-550.99 133.33,-589.75 171,-612 186.19,-620.97 203.94,-627.74 220.82,-632.79"/>
<polygon fill="#526d82" stroke="#526d82" points="220.59,-635.27 228,-634.85 221.95,-630.56 220.59,-635.27"/>
</g>
<!-- player&#45;&gt;personal -->
<g id="edge3" class="edge">
<title>player&#45;&gt;personal</title>
<path fill="none" stroke="#526d82" d="M94.75,-519.28C115.66,-526.22 145.08,-535.88 171,-544 189.11,-549.67 208.91,-555.67 226.82,-561.03"/>
<polygon fill="#526d82" stroke="#526d82" points="226.44,-563.47 233.85,-563.12 227.84,-558.77 226.44,-563.47"/>
</g>
<!-- player&#45;&gt;tournaments -->
<g id="edge4" class="edge">
<title>player&#45;&gt;tournaments</title>
<path fill="none" stroke="#526d82" d="M94.75,-500.72C115.66,-493.78 145.08,-484.12 171,-476 189.97,-470.06 210.79,-463.76 229.36,-458.22"/>
<polygon fill="#526d82" stroke="#526d82" points="230.08,-460.56 236.09,-456.21 228.68,-455.86 230.08,-460.56"/>
</g>
<!-- local -->
<g id="node12" class="node">
<title>local</title>
<path fill="#eaf1f7" stroke="#34506b" d="M108.5,-392C108.5,-392 23.5,-392 23.5,-392 17.5,-392 11.5,-386 11.5,-380 11.5,-380 11.5,-368 11.5,-368 11.5,-362 17.5,-356 23.5,-356 23.5,-356 108.5,-356 108.5,-356 114.5,-356 120.5,-362 120.5,-368 120.5,-368 120.5,-380 120.5,-380 120.5,-386 114.5,-392 108.5,-392"/>
<text text-anchor="middle" x="66" y="-371.5" font-family="Arial" font-size="10.00" fill="#172b3a">Amministratore locale</text>
</g>
<!-- local&#45;&gt;login -->
<g id="edge5" class="edge">
<title>local&#45;&gt;login</title>
<path fill="none" stroke="#526d82" d="M80.83,-355.8C99.08,-333.01 133.33,-294.25 171,-272 185.72,-263.31 202.85,-256.67 219.27,-251.68"/>
<polygon fill="#526d82" stroke="#526d82" points="220.22,-253.95 226.25,-249.64 218.85,-249.25 220.22,-253.95"/>
</g>
<!-- local&#45;&gt;tournaments -->
<g id="edge6" class="edge">
<title>local&#45;&gt;tournaments</title>
<path fill="none" stroke="#526d82" d="M120.63,-391.81C136.79,-397.11 154.59,-402.86 171,-408 189.97,-413.94 210.79,-420.24 229.36,-425.78"/>
<polygon fill="#526d82" stroke="#526d82" points="228.68,-428.14 236.09,-427.79 230.08,-423.44 228.68,-428.14"/>
</g>
<!-- local&#45;&gt;manage_local -->
<g id="edge7" class="edge">
<title>local&#45;&gt;manage_local</title>
<path fill="none" stroke="#526d82" d="M120.76,-374C142.06,-374 167.17,-374 191.25,-374"/>
<polygon fill="#526d82" stroke="#526d82" points="191.35,-376.45 198.35,-374 191.35,-371.55 191.35,-376.45"/>
</g>
<!-- local&#45;&gt;matches -->
<g id="edge8" class="edge">
<title>local&#45;&gt;matches</title>
<path fill="none" stroke="#526d82" d="M80.83,-392.2C99.08,-414.99 133.33,-453.75 171,-476 185.26,-484.42 201.77,-490.91 217.71,-495.84"/>
<polygon fill="#526d82" stroke="#526d82" points="217.09,-498.21 224.5,-497.86 218.49,-493.52 217.09,-498.21"/>
</g>
<!-- local&#45;&gt;devices -->
<g id="edge9" class="edge">
<title>local&#45;&gt;devices</title>
<path fill="none" stroke="#526d82" d="M120.63,-356.19C136.79,-350.89 154.59,-345.14 171,-340 188.42,-334.55 207.39,-328.79 224.76,-323.59"/>
<polygon fill="#526d82" stroke="#526d82" points="225.57,-325.91 231.58,-321.56 224.17,-321.21 225.57,-325.91"/>
</g>
<!-- gameadmin -->
<g id="node13" class="node">
<title>gameadmin</title>
<path fill="#eaf1f7" stroke="#34506b" d="M107.5,-256C107.5,-256 24.5,-256 24.5,-256 18.5,-256 12.5,-250 12.5,-244 12.5,-244 12.5,-232 12.5,-232 12.5,-226 18.5,-220 24.5,-220 24.5,-220 107.5,-220 107.5,-220 113.5,-220 119.5,-226 119.5,-232 119.5,-232 119.5,-244 119.5,-244 119.5,-250 113.5,-256 107.5,-256"/>
<text text-anchor="middle" x="66" y="-235.5" font-family="Arial" font-size="10.00" fill="#172b3a">Amministratore gioco</text>
</g>
<!-- gameadmin&#45;&gt;login -->
<g id="edge10" class="edge">
<title>gameadmin&#45;&gt;login</title>
<path fill="none" stroke="#526d82" d="M119.65,-238C143.89,-238 173.24,-238 200.42,-238"/>
<polygon fill="#526d82" stroke="#526d82" points="200.65,-240.45 207.65,-238 200.65,-235.55 200.65,-240.45"/>
</g>
<!-- gameadmin&#45;&gt;devices -->
<g id="edge11" class="edge">
<title>gameadmin&#45;&gt;devices</title>
<path fill="none" stroke="#526d82" d="M119.56,-255.46C136,-260.85 154.23,-266.75 171,-272 188.42,-277.45 207.39,-283.21 224.76,-288.41"/>
<polygon fill="#526d82" stroke="#526d82" points="224.17,-290.79 231.58,-290.44 225.57,-286.09 224.17,-290.79"/>
</g>
<!-- gameadmin&#45;&gt;types -->
<g id="edge12" class="edge">
<title>gameadmin&#45;&gt;types</title>
<path fill="none" stroke="#526d82" d="M119.56,-220.54C136,-215.15 154.23,-209.25 171,-204 189.46,-198.22 209.66,-192.1 227.85,-186.67"/>
<polygon fill="#526d82" stroke="#526d82" points="228.96,-188.89 234.97,-184.54 227.56,-184.2 228.96,-188.89"/>
</g>
<!-- gameadmin&#45;&gt;global_stats -->
<g id="edge13" class="edge">
<title>gameadmin&#45;&gt;global_stats</title>
<path fill="none" stroke="#526d82" d="M110.24,-219.83C118.03,-215.37 125.67,-210.09 132,-204 157.11,-179.85 143.7,-157.65 171,-136 182.43,-126.94 196.23,-120.29 210.21,-115.41"/>
<polygon fill="#526d82" stroke="#526d82" points="211.2,-117.66 217.08,-113.15 209.67,-113.01 211.2,-117.66"/>
</g>
<!-- platformadmin -->
<g id="node14" class="node">
<title>platformadmin</title>
<path fill="#eaf1f7" stroke="#34506b" d="M120,-188C120,-188 12,-188 12,-188 6,-188 0,-182 0,-176 0,-176 0,-164 0,-164 0,-158 6,-152 12,-152 12,-152 120,-152 120,-152 126,-152 132,-158 132,-164 132,-164 132,-176 132,-176 132,-182 126,-188 120,-188"/>
<text text-anchor="middle" x="66" y="-167.5" font-family="Arial" font-size="10.00" fill="#172b3a">Amministratore piattaforma</text>
</g>
<!-- platformadmin&#45;&gt;login -->
<g id="edge14" class="edge">
<title>platformadmin&#45;&gt;login</title>
<path fill="none" stroke="#526d82" d="M121.43,-188.08C137.38,-193.3 154.87,-198.95 171,-204 190.14,-210 211.17,-216.36 229.87,-221.94"/>
<polygon fill="#526d82" stroke="#526d82" points="229.24,-224.3 236.65,-223.95 230.64,-219.61 229.24,-224.3"/>
</g>
<!-- platformadmin&#45;&gt;tournaments -->
<g id="edge15" class="edge">
<title>platformadmin&#45;&gt;tournaments</title>
<path fill="none" stroke="#526d82" d="M114.3,-188.06C121.05,-192.4 127.29,-197.66 132,-204 187.04,-278.1 109.15,-339.48 171,-408 180.83,-418.89 194,-426.35 207.87,-431.45"/>
<polygon fill="#526d82" stroke="#526d82" points="207.31,-433.85 214.73,-433.77 208.88,-429.2 207.31,-433.85"/>
</g>
<!-- platformadmin&#45;&gt;types -->
<g id="edge16" class="edge">
<title>platformadmin&#45;&gt;types</title>
<path fill="none" stroke="#526d82" d="M132.26,-170C151.4,-170 172.69,-170 193.14,-170"/>
<polygon fill="#526d82" stroke="#526d82" points="193.33,-172.45 200.33,-170 193.33,-167.55 193.33,-172.45"/>
</g>
<!-- platformadmin&#45;&gt;platform -->
<g id="edge17" class="edge">
<title>platformadmin&#45;&gt;platform</title>
<path fill="none" stroke="#526d82" d="M80.83,-151.8C99.08,-129.01 133.33,-90.25 171,-68 185.1,-59.67 201.41,-53.24 217.19,-48.32"/>
<polygon fill="#526d82" stroke="#526d82" points="217.91,-50.66 223.92,-46.3 216.51,-45.97 217.91,-50.66"/>
</g>
<!-- platformadmin&#45;&gt;global_stats -->
<g id="edge18" class="edge">
<title>platformadmin&#45;&gt;global_stats</title>
<path fill="none" stroke="#526d82" d="M121.43,-151.92C137.38,-146.7 154.87,-141.05 171,-136 189.37,-130.25 209.47,-124.16 227.59,-118.74"/>
<polygon fill="#526d82" stroke="#526d82" points="228.68,-120.98 234.69,-116.63 227.28,-116.28 228.68,-120.98"/>
</g>
</g>
</svg>
