<?xml version="1.0" encoding="UTF-8" standalone="no"?>
<!DOCTYPE svg PUBLIC "-//W3C//DTD SVG 1.1//EN"
 "http://www.w3.org/Graphics/SVG/1.1/DTD/svg11.dtd">
<!-- Generated by graphviz version 2.42.4 (0)
 -->
<!-- Title: G Pages: 1 -->
<svg width="922pt" height="260pt"
 viewBox="0.00 0.00 922.00 260.00" xmlns="http://www.w3.org/2000/svg" xmlns:xlink="http://www.w3.org/1999/xlink">
<g id="graph0" class="graph" transform="scale(1 1) rotate(0) translate(18 242)">
<title>G</title>
<polygon fill="white" stroke="transparent" points="-18,18 -18,-242 904,-242 904,18 -18,18"/>
<!-- frontend -->
<g id="node1" class="node">
<title>frontend</title>
<path fill="#e7f1fa" stroke="#34506b" d="M109,-177C109,-177 12,-177 12,-177 6,-177 0,-171 0,-165 0,-165 0,-153 0,-153 0,-147 6,-141 12,-141 12,-141 109,-141 109,-141 115,-141 121,-147 121,-153 121,-153 121,-165 121,-165 121,-171 115,-177 109,-177"/>
<text text-anchor="middle" x="60.5" y="-162" font-family="Arial" font-size="10.00" fill="#172b3a">Frontend web</text>
<text text-anchor="middle" x="60.5" y="-151" font-family="Arial" font-size="10.00" fill="#172b3a">HTML, CSS, JavaScript</text>
</g>
<!-- gateway -->
<g id="node2" class="node">
<title>gateway</title>
<path fill="#ddecf7" stroke="#34506b" d="M323.5,-177C323.5,-177 274.5,-177 274.5,-177 268.5,-177 262.5,-171 262.5,-165 262.5,-165 262.5,-153 262.5,-153 262.5,-147 268.5,-141 274.5,-141 274.5,-141 323.5,-141 323.5,-141 329.5,-141 335.5,-147 335.5,-153 335.5,-153 335.5,-165 335.5,-165 335.5,-171 329.5,-177 323.5,-177"/>
<text text-anchor="middle" x="299" y="-162" font-family="Arial" font-size="10.00" fill="#172b3a">API Gateway</text>
<text text-anchor="middle" x="299" y="-151" font-family="Arial" font-size="10.00" fill="#172b3a">porta 3000</text>
</g>
<!-- frontend&#45;&gt;gateway -->
<g id="edge1" class="edge">
<title>frontend&#45;&gt;gateway</title>
<path fill="none" stroke="#526d82" d="M121.18,-159C162.87,-159 217.56,-159 255.01,-159"/>
<polygon fill="#526d82" stroke="#526d82" points="255.27,-161.45 262.27,-159 255.27,-156.55 255.27,-161.45"/>
<text text-anchor="middle" x="175.5" y="-161.8" font-family="Arial" font-size="9.00" fill="#334e5e">REST / JSON</text>
</g>
<!-- catalog -->
<g id="node3" class="node">
<title>catalog</title>
<path fill="#f4f7fb" stroke="#34506b" d="M658,-156C658,-156 546,-156 546,-156 540,-156 534,-150 534,-144 534,-144 534,-132 534,-132 534,-126 540,-120 546,-120 546,-120 658,-120 658,-120 664,-120 670,-126 670,-132 670,-132 670,-144 670,-144 670,-150 664,-156 658,-156"/>
<text text-anchor="middle" x="602" y="-141" font-family="Arial" font-size="10.00" fill="#172b3a">Catalog Service</text>
<text text-anchor="middle" x="602" y="-130" font-family="Arial" font-size="10.00" fill="#172b3a">locali, utenti, giochi, sensori</text>
</g>
<!-- gateway&#45;&gt;catalog -->
<g id="edge2" class="edge">
<title>gateway&#45;&gt;catalog</title>
<path fill="none" stroke="#526d82" d="M335.71,-156.51C382.47,-153.25 465.64,-147.44 526.42,-143.2"/>
<polygon fill="#526d82" stroke="#526d82" points="526.91,-145.63 533.72,-142.69 526.57,-140.74 526.91,-145.63"/>
<text text-anchor="middle" x="451" y="-154.8" font-family="Arial" font-size="9.00" fill="#334e5e">/api/catalogo</text>
</g>
<!-- match -->
<g id="node4" class="node">
<title>match</title>
<path fill="#f4f7fb" stroke="#34506b" d="M644,-83C644,-83 560,-83 560,-83 554,-83 548,-77 548,-71 548,-71 548,-59 548,-59 548,-53 554,-47 560,-47 560,-47 644,-47 644,-47 650,-47 656,-53 656,-59 656,-59 656,-71 656,-71 656,-77 650,-83 644,-83"/>
<text text-anchor="middle" x="602" y="-68" font-family="Arial" font-size="10.00" fill="#172b3a">Match Service</text>
<text text-anchor="middle" x="602" y="-57" font-family="Arial" font-size="10.00" fill="#172b3a">partite, eventi, MQTT</text>
</g>
<!-- gateway&#45;&gt;match -->
<g id="edge3" class="edge">
<title>gateway&#45;&gt;match</title>
<path fill="none" stroke="#526d82" d="M311,-140.99C326.03,-118.29 355.37,-80.4 392,-65 439.05,-45.21 497.5,-47.17 540.61,-52.95"/>
<polygon fill="#526d82" stroke="#526d82" points="540.39,-55.4 547.67,-53.95 541.08,-50.54 540.39,-55.4"/>
<text text-anchor="middle" x="451" y="-67.8" font-family="Arial" font-size="9.00" fill="#334e5e">/api/matches</text>
</g>
<!-- tournament -->
<g id="node5" class="node">
<title>tournament</title>
<path fill="#f4f7fb" stroke="#34506b" d="M655,-224C655,-224 549,-224 549,-224 543,-224 537,-218 537,-212 537,-212 537,-200 537,-200 537,-194 543,-188 549,-188 549,-188 655,-188 655,-188 661,-188 667,-194 667,-200 667,-200 667,-212 667,-212 667,-218 661,-224 655,-224"/>
<text text-anchor="middle" x="602" y="-209" font-family="Arial" font-size="10.00" fill="#172b3a">Tournament Service</text>
<text text-anchor="middle" x="602" y="-198" font-family="Arial" font-size="10.00" fill="#172b3a">tornei, squadre, statistiche</text>
</g>
<!-- gateway&#45;&gt;tournament -->
<g id="edge4" class="edge">
<title>gateway&#45;&gt;tournament</title>
<path fill="none" stroke="#526d82" d="M335.71,-164.58C383.39,-172.02 468.93,-185.38 529.98,-194.91"/>
<polygon fill="#526d82" stroke="#526d82" points="529.64,-197.34 536.93,-196 530.39,-192.49 529.64,-197.34"/>
<text text-anchor="middle" x="451" y="-192.8" font-family="Arial" font-size="9.00" fill="#334e5e">/api/tornei e statistiche</text>
</g>
<!-- mysql -->
<g id="node6" class="node">
<title>mysql</title>
<path fill="#fff5dd" stroke="#34506b" d="M886,-177C886,-179.21 864.93,-181 839,-181 813.07,-181 792,-179.21 792,-177 792,-177 792,-141 792,-141 792,-138.79 813.07,-137 839,-137 864.93,-137 886,-138.79 886,-141 886,-141 886,-177 886,-177"/>
<path fill="none" stroke="#34506b" d="M886,-177C886,-174.79 864.93,-173 839,-173 813.07,-173 792,-174.79 792,-177"/>
<text text-anchor="middle" x="839" y="-162" font-family="Arial" font-size="10.00" fill="#172b3a">MySQL</text>
<text text-anchor="middle" x="839" y="-151" font-family="Arial" font-size="10.00" fill="#172b3a">connected_games</text>
</g>
<!-- catalog&#45;&gt;mysql -->
<g id="edge5" class="edge">
<title>catalog&#45;&gt;mysql</title>
<path fill="none" stroke="#526d82" d="M670.03,-143.99C706.38,-147.24 750.68,-151.2 784.66,-154.23"/>
<polygon fill="#526d82" stroke="#526d82" points="784.56,-156.68 791.75,-154.87 785,-151.8 784.56,-156.68"/>
<text text-anchor="middle" x="731" y="-154.8" font-family="Arial" font-size="9.00" fill="#334e5e">SQL</text>
</g>
<!-- match&#45;&gt;mysql -->
<g id="edge6" class="edge">
<title>match&#45;&gt;mysql</title>
<path fill="none" stroke="#526d82" d="M652.36,-83.08C685.29,-95.33 729.44,-112.11 768,-128 773.96,-130.45 780.17,-133.09 786.32,-135.75"/>
<polygon fill="#526d82" stroke="#526d82" points="785.57,-138.09 792.96,-138.64 787.52,-133.6 785.57,-138.09"/>
<text text-anchor="middle" x="731" y="-130.8" font-family="Arial" font-size="9.00" fill="#334e5e">SQL</text>
</g>
<!-- broker -->
<g id="node7" class="node">
<title>broker</title>
<polygon fill="#ede7f6" stroke="#34506b" points="876,-36 802,-36 802,-32 798,-32 798,-28 802,-28 802,-8 798,-8 798,-4 802,-4 802,0 876,0 876,-36"/>
<polyline fill="none" stroke="#34506b" points="802,-32 806,-32 806,-28 802,-28 "/>
<polyline fill="none" stroke="#34506b" points="802,-8 806,-8 806,-4 802,-4 "/>
<text text-anchor="middle" x="839" y="-21" font-family="Arial" font-size="10.00" fill="#172b3a">Broker MQTT</text>
<text text-anchor="middle" x="839" y="-10" font-family="Arial" font-size="10.00" fill="#172b3a">Mosquitto</text>
</g>
<!-- match&#45;&gt;broker -->
<g id="edge11" class="edge">
<title>match&#45;&gt;broker</title>
<path fill="none" stroke="#526d82" d="M656.03,-54.39C697.96,-46.01 755.75,-34.45 794.87,-26.63"/>
<polygon fill="#526d82" stroke="#526d82" points="795.56,-28.99 801.95,-25.21 794.6,-24.18 795.56,-28.99"/>
<text text-anchor="middle" x="731" y="-47.8" font-family="Arial" font-size="9.00" fill="#334e5e">comandi attuatori</text>
</g>
<!-- tournament&#45;&gt;mysql -->
<g id="edge7" class="edge">
<title>tournament&#45;&gt;mysql</title>
<path fill="none" stroke="#526d82" d="M667.21,-193.16C704.01,-185.8 749.64,-176.67 784.48,-169.7"/>
<polygon fill="#526d82" stroke="#526d82" points="785.36,-172.03 791.75,-168.25 784.4,-167.22 785.36,-172.03"/>
<text text-anchor="middle" x="731" y="-188.8" font-family="Arial" font-size="9.00" fill="#334e5e">SQL</text>
</g>
<!-- broker&#45;&gt;match -->
<g id="edge10" class="edge">
<title>broker&#45;&gt;match</title>
<path fill="none" stroke="#526d82" d="M801.93,-13.34C772.46,-10.63 729.95,-9.26 694,-18 673.56,-22.97 652.58,-33.38 635.92,-43.14"/>
<polygon fill="#526d82" stroke="#526d82" points="634.27,-41.28 629.53,-46.98 636.79,-45.48 634.27,-41.28"/>
<text text-anchor="middle" x="731" y="-20.8" font-family="Arial" font-size="9.00" fill="#334e5e">eventi e heartbeat</text>
</g>
<!-- edgeNode -->
<g id="node8" class="node">
<title>edgeNode</title>
<path fill="#e6f4ea" stroke="#34506b" d="M356,-46C356,-46 242,-46 242,-46 236,-46 230,-40 230,-34 230,-34 230,-22 230,-22 230,-16 236,-10 242,-10 242,-10 356,-10 356,-10 362,-10 368,-16 368,-22 368,-22 368,-34 368,-34 368,-40 362,-46 356,-46"/>
<text text-anchor="middle" x="299" y="-31" font-family="Arial" font-size="10.00" fill="#172b3a">Edge Service</text>
<text text-anchor="middle" x="299" y="-20" font-family="Arial" font-size="10.00" fill="#172b3a">sensori simulati, coda offline</text>
</g>
<!-- edgeNode&#45;&gt;catalog -->
<g id="edge12" class="edge">
<title>edgeNode&#45;&gt;catalog</title>
<path fill="none" stroke="#526d82" d="M331.22,-46.21C348.7,-55.91 371.13,-67.55 392,-76 435.78,-93.72 486.53,-108.9 527.06,-119.8"/>
<polygon fill="#526d82" stroke="#526d82" points="526.6,-122.21 533.99,-121.65 527.86,-117.47 526.6,-122.21"/>
<text text-anchor="middle" x="451" y="-117.8" font-family="Arial" font-size="9.00" fill="#334e5e">configurazione REST interna</text>
</g>
<!-- edgeNode&#45;&gt;broker -->
<g id="edge9" class="edge">
<title>edgeNode&#45;&gt;broker</title>
<path fill="none" stroke="#526d82" d="M368.27,-22.35C446.79,-16.16 579.6,-6.63 694,-3 726.87,-1.96 735.29,0.46 768,-3 776.78,-3.93 786.07,-5.5 794.92,-7.28"/>
<polygon fill="#526d82" stroke="#526d82" points="794.55,-9.7 801.9,-8.74 795.56,-4.91 794.55,-9.7"/>
<text text-anchor="middle" x="602" y="-13.8" font-family="Arial" font-size="9.00" fill="#334e5e">MQTT QoS 1</text>
</g>
<!-- physical -->
<g id="node9" class="node">
<title>physical</title>
<path fill="#f3e8e8" stroke="#34506b" d="M81.5,-46C81.5,-46 39.5,-46 39.5,-46 33.5,-46 27.5,-40 27.5,-34 27.5,-34 27.5,-22 27.5,-22 27.5,-16 33.5,-10 39.5,-10 39.5,-10 81.5,-10 81.5,-10 87.5,-10 93.5,-16 93.5,-22 93.5,-22 93.5,-34 93.5,-34 93.5,-40 87.5,-46 81.5,-46"/>
<text text-anchor="middle" x="60.5" y="-31" font-family="Arial" font-size="10.00" fill="#172b3a">Gioco fisico</text>
<text text-anchor="middle" x="60.5" y="-20" font-family="Arial" font-size="10.00" fill="#172b3a">o simulato</text>
</g>
<!-- physical&#45;&gt;edgeNode -->
<g id="edge8" class="edge">
<title>physical&#45;&gt;edgeNode</title>
<path fill="none" stroke="#526d82" d="M93.89,-28C126.84,-28 179.1,-28 222.49,-28"/>
<polygon fill="#526d82" stroke="#526d82" points="222.65,-30.45 229.65,-28 222.65,-25.55 222.65,-30.45"/>
<text text-anchor="middle" x="175.5" y="-30.8" font-family="Arial" font-size="9.00" fill="#334e5e">eventi sensore</text>
</g>
</g>
</svg>
