<?xml version="1.0" encoding="UTF-8" standalone="no"?>
<!DOCTYPE svg PUBLIC "-//W3C//DTD SVG 1.1//EN"
 "http://www.w3.org/Graphics/SVG/1.1/DTD/svg11.dtd">
<!-- Generated by graphviz version 2.42.4 (0)
 -->
<!-- Title: G Pages: 1 -->
<svg width="874pt" height="516pt"
 viewBox="0.00 0.00 874.00 516.00" xmlns="http://www.w3.org/2000/svg" xmlns:xlink="http://www.w3.org/1999/xlink">
<g id="graph0" class="graph" transform="scale(1 1) rotate(0) translate(18 498)">
<title>G</title>
<polygon fill="white" stroke="transparent" points="-18,18 -18,-498 856,-498 856,18 -18,18"/>
<!-- locale -->
<g id="node1" class="node">
<title>locale</title>
<polygon fill="#f7fafc" stroke="#34506b" points="268.5,-336.5 268.5,-378.5 387.5,-378.5 387.5,-336.5 268.5,-336.5"/>
<text text-anchor="middle" x="328" y="-365.5" font-family="Arial" font-size="10.00" fill="#172b3a">Locale</text>
<polyline fill="none" stroke="#34506b" points="268.5,-357.5 387.5,-357.5 "/>
<text text-anchor="middle" x="328" y="-344.5" font-family="Arial" font-size="10.00" fill="#172b3a">id; nome; citta; indirizzo</text>
</g>
<!-- user -->
<g id="node2" class="node">
<title>user</title>
<polygon fill="#f7fafc" stroke="#34506b" points="359,-202.5 359,-244.5 501,-244.5 501,-202.5 359,-202.5"/>
<text text-anchor="middle" x="430" y="-231.5" font-family="Arial" font-size="10.00" fill="#172b3a">Utente</text>
<polyline fill="none" stroke="#34506b" points="359,-223.5 501,-223.5 "/>
<text text-anchor="middle" x="430" y="-210.5" font-family="Arial" font-size="10.00" fill="#172b3a">id; username; ruolo; locale_id</text>
</g>
<!-- locale&#45;&gt;user -->
<g id="edge1" class="edge">
<title>locale&#45;&gt;user</title>
<path fill="none" stroke="#526d82" d="M343.49,-336.45C361.24,-313.48 390.38,-275.77 409.87,-250.55"/>
<polygon fill="#526d82" stroke="#526d82" points="412.02,-251.77 414.36,-244.74 408.14,-248.78 412.02,-251.77"/>
<text text-anchor="middle" x="416" y="-288.3" font-family="Arial" font-size="9.00" fill="#334e5e">0..1 / molti</text>
</g>
<!-- game -->
<g id="node5" class="node">
<title>game</title>
<polygon fill="#f7fafc" stroke="#34506b" points="167.5,-202.5 167.5,-244.5 326.5,-244.5 326.5,-202.5 167.5,-202.5"/>
<text text-anchor="middle" x="247" y="-231.5" font-family="Arial" font-size="10.00" fill="#172b3a">Gioco</text>
<polyline fill="none" stroke="#34506b" points="167.5,-223.5 326.5,-223.5 "/>
<text text-anchor="middle" x="247" y="-210.5" font-family="Arial" font-size="10.00" fill="#172b3a">id; nome; stato; locale_id; tipo_id</text>
</g>
<!-- locale&#45;&gt;game -->
<g id="edge2" class="edge">
<title>locale&#45;&gt;game</title>
<path fill="none" stroke="#526d82" d="M315.7,-336.45C301.66,-313.58 278.66,-276.09 263.18,-250.87"/>
<polygon fill="#526d82" stroke="#526d82" points="265.17,-249.42 259.42,-244.74 260.99,-251.98 265.17,-249.42"/>
<text text-anchor="middle" x="316" y="-288.3" font-family="Arial" font-size="9.00" fill="#334e5e">1 / molti</text>
</g>
<!-- edgeNode -->
<g id="node6" class="node">
<title>edgeNode</title>
<polygon fill="#f7fafc" stroke="#34506b" points="7,-202.5 7,-244.5 135,-244.5 135,-202.5 7,-202.5"/>
<text text-anchor="middle" x="71" y="-231.5" font-family="Arial" font-size="10.00" fill="#172b3a">DispositivoEdge</text>
<polyline fill="none" stroke="#34506b" points="7,-223.5 135,-223.5 "/>
<text text-anchor="middle" x="71" y="-210.5" font-family="Arial" font-size="10.00" fill="#172b3a">id; nome; stato; last_seen</text>
</g>
<!-- locale&#45;&gt;edgeNode -->
<g id="edge3" class="edge">
<title>locale&#45;&gt;edgeNode</title>
<path fill="none" stroke="#526d82" d="M285.7,-336.45C270.03,-328.91 252.14,-320.18 236,-312 194.38,-290.91 147.41,-265.88 114.26,-248"/>
<polygon fill="#526d82" stroke="#526d82" points="115.14,-245.7 107.82,-244.53 112.82,-250.01 115.14,-245.7"/>
<text text-anchor="middle" x="252" y="-288.3" font-family="Arial" font-size="9.00" fill="#334e5e">1 / molti</text>
</g>
<!-- match -->
<g id="node9" class="node">
<title>match</title>
<polygon fill="#f7fafc" stroke="#34506b" points="354,-101.5 354,-143.5 532,-143.5 532,-101.5 354,-101.5"/>
<text text-anchor="middle" x="443" y="-130.5" font-family="Arial" font-size="10.00" fill="#172b3a">Partita</text>
<polyline fill="none" stroke="#34506b" points="354,-122.5 532,-122.5 "/>
<text text-anchor="middle" x="443" y="-109.5" font-family="Arial" font-size="10.00" fill="#172b3a">id; modalita; punteggi; stato; vincitore</text>
</g>
<!-- user&#45;&gt;match -->
<g id="edge12" class="edge">
<title>user&#45;&gt;match</title>
<path fill="none" stroke="#526d82" d="M432.63,-202.47C434.59,-187.57 437.28,-167.08 439.43,-150.7"/>
<polygon fill="#526d82" stroke="#526d82" points="441.89,-150.76 440.37,-143.5 437.03,-150.13 441.89,-150.76"/>
<text text-anchor="middle" x="463" y="-170.8" font-family="Arial" font-size="9.00" fill="#334e5e">partecipante</text>
</g>
<!-- gt -->
<g id="node3" class="node">
<title>gt</title>
<polygon fill="#f7fafc" stroke="#34506b" points="458,-336.5 458,-378.5 612,-378.5 612,-336.5 458,-336.5"/>
<text text-anchor="middle" x="535" y="-365.5" font-family="Arial" font-size="10.00" fill="#172b3a">TipoGioco</text>
<polyline fill="none" stroke="#34506b" points="458,-357.5 612,-357.5 "/>
<text text-anchor="middle" x="535" y="-344.5" font-family="Arial" font-size="10.00" fill="#172b3a">id; nome; eventi; limite; squadre</text>
</g>
<!-- template -->
<g id="node4" class="node">
<title>template</title>
<polygon fill="#f7fafc" stroke="#34506b" points="533,-202.5 533,-244.5 639,-244.5 639,-202.5 533,-202.5"/>
<text text-anchor="middle" x="586" y="-231.5" font-family="Arial" font-size="10.00" fill="#172b3a">ModelloSensore</text>
<polyline fill="none" stroke="#34506b" points="533,-223.5 639,-223.5 "/>
<text text-anchor="middle" x="586" y="-210.5" font-family="Arial" font-size="10.00" fill="#172b3a">id; nome; event_type</text>
</g>
<!-- gt&#45;&gt;template -->
<g id="edge5" class="edge">
<title>gt&#45;&gt;template</title>
<path fill="none" stroke="#526d82" d="M542.75,-336.45C551.51,-313.77 565.82,-276.73 575.56,-251.51"/>
<polygon fill="#526d82" stroke="#526d82" points="577.94,-252.15 578.18,-244.74 573.37,-250.38 577.94,-252.15"/>
<text text-anchor="middle" x="584" y="-288.3" font-family="Arial" font-size="9.00" fill="#334e5e">1 / molti</text>
</g>
<!-- gt&#45;&gt;game -->
<g id="edge4" class="edge">
<title>gt&#45;&gt;game</title>
<path fill="none" stroke="#526d82" d="M519.76,-336.19C503.5,-316.01 475.85,-285.7 445,-269 442.35,-267.56 385.75,-254.9 333.75,-243.45"/>
<polygon fill="#526d82" stroke="#526d82" points="334.14,-241.03 326.78,-241.92 333.09,-245.82 334.14,-241.03"/>
<text text-anchor="middle" x="514" y="-288.3" font-family="Arial" font-size="9.00" fill="#334e5e">1 / molti</text>
</g>
<!-- sensor -->
<g id="node7" class="node">
<title>sensor</title>
<polygon fill="#f7fafc" stroke="#34506b" points="0,-101.5 0,-143.5 166,-143.5 166,-101.5 0,-101.5"/>
<text text-anchor="middle" x="83" y="-130.5" font-family="Arial" font-size="10.00" fill="#172b3a">Sensore</text>
<polyline fill="none" stroke="#34506b" points="0,-122.5 166,-122.5 "/>
<text text-anchor="middle" x="83" y="-109.5" font-family="Arial" font-size="10.00" fill="#172b3a">id; nome; sensor_type; topic; stato</text>
</g>
<!-- game&#45;&gt;sensor -->
<g id="edge7" class="edge">
<title>game&#45;&gt;sensor</title>
<path fill="none" stroke="#526d82" d="M217.4,-202.25C201.72,-191.73 182.02,-178.84 164,-168 152.29,-160.96 139.41,-153.67 127.43,-147.09"/>
<polygon fill="#526d82" stroke="#526d82" points="128.58,-144.93 121.26,-143.72 126.23,-149.23 128.58,-144.93"/>
<text text-anchor="middle" x="197" y="-170.8" font-family="Arial" font-size="9.00" fill="#334e5e">1 / molti</text>
</g>
<!-- actuator -->
<g id="node8" class="node">
<title>actuator</title>
<polygon fill="#f7fafc" stroke="#34506b" points="214.5,-101.5 214.5,-143.5 313.5,-143.5 313.5,-101.5 214.5,-101.5"/>
<text text-anchor="middle" x="264" y="-130.5" font-family="Arial" font-size="10.00" fill="#172b3a">Attuatore</text>
<polyline fill="none" stroke="#34506b" points="214.5,-122.5 313.5,-122.5 "/>
<text text-anchor="middle" x="264" y="-109.5" font-family="Arial" font-size="10.00" fill="#172b3a">id; tipo; stato; topic</text>
</g>
<!-- game&#45;&gt;actuator -->
<g id="edge9" class="edge">
<title>game&#45;&gt;actuator</title>
<path fill="none" stroke="#526d82" d="M250.44,-202.47C253,-187.57 256.52,-167.08 259.33,-150.7"/>
<polygon fill="#526d82" stroke="#526d82" points="261.79,-150.82 260.56,-143.5 256.97,-149.99 261.79,-150.82"/>
<text text-anchor="middle" x="273" y="-170.8" font-family="Arial" font-size="9.00" fill="#334e5e">1 / molti</text>
</g>
<!-- game&#45;&gt;match -->
<g id="edge10" class="edge">
<title>game&#45;&gt;match</title>
<path fill="none" stroke="#526d82" d="M286.66,-202.47C318.54,-186.36 363.37,-163.72 396.86,-146.81"/>
<polygon fill="#526d82" stroke="#526d82" points="398.25,-148.85 403.4,-143.5 396.04,-144.47 398.25,-148.85"/>
<text text-anchor="middle" x="367" y="-170.8" font-family="Arial" font-size="9.00" fill="#334e5e">1 / molti</text>
</g>
<!-- edgeNode&#45;&gt;sensor -->
<g id="edge6" class="edge">
<title>edgeNode&#45;&gt;sensor</title>
<path fill="none" stroke="#526d82" d="M62.11,-202.5C58.65,-192.16 56.13,-179.37 59,-168 60.51,-162.01 63.01,-155.94 65.84,-150.3"/>
<polygon fill="#526d82" stroke="#526d82" points="68.12,-151.23 69.26,-143.9 63.8,-148.91 68.12,-151.23"/>
<text text-anchor="middle" x="75" y="-170.8" font-family="Arial" font-size="9.00" fill="#334e5e">1 / molti</text>
</g>
<!-- edgeNode&#45;&gt;actuator -->
<g id="edge8" class="edge">
<title>edgeNode&#45;&gt;actuator</title>
<path fill="none" stroke="#526d82" d="M86.27,-202.44C95.97,-190.93 109.4,-177.02 124,-168 138.33,-159.14 175.15,-147.58 207.43,-138.46"/>
<polygon fill="#526d82" stroke="#526d82" points="208.16,-140.8 214.24,-136.55 206.84,-136.08 208.16,-140.8"/>
<text text-anchor="middle" x="140" y="-170.8" font-family="Arial" font-size="9.00" fill="#334e5e">1 / molti</text>
</g>
<!-- event -->
<g id="node10" class="node">
<title>event</title>
<polygon fill="#f7fafc" stroke="#34506b" points="370,-0.5 370,-42.5 516,-42.5 516,-0.5 370,-0.5"/>
<text text-anchor="middle" x="443" y="-29.5" font-family="Arial" font-size="10.00" fill="#172b3a">EventoPartita</text>
<polyline fill="none" stroke="#34506b" points="370,-21.5 516,-21.5 "/>
<text text-anchor="middle" x="443" y="-8.5" font-family="Arial" font-size="10.00" fill="#172b3a">uuid; tipo; valore; sync_status</text>
</g>
<!-- match&#45;&gt;event -->
<g id="edge11" class="edge">
<title>match&#45;&gt;event</title>
<path fill="none" stroke="#526d82" d="M443,-101.47C443,-86.57 443,-66.08 443,-49.7"/>
<polygon fill="#526d82" stroke="#526d82" points="445.45,-49.5 443,-42.5 440.55,-49.5 445.45,-49.5"/>
<text text-anchor="middle" x="459" y="-69.8" font-family="Arial" font-size="9.00" fill="#334e5e">1 / molti</text>
</g>
<!-- team -->
<g id="node11" class="node">
<title>team</title>
<polygon fill="#f7fafc" stroke="#34506b" points="655,-269.5 655,-311.5 751,-311.5 751,-269.5 655,-269.5"/>
<text text-anchor="middle" x="703" y="-298.5" font-family="Arial" font-size="10.00" fill="#172b3a">Squadra</text>
<polyline fill="none" stroke="#34506b" points="655,-290.5 751,-290.5 "/>
<text text-anchor="middle" x="703" y="-277.5" font-family="Arial" font-size="10.00" fill="#172b3a">id; nome; locale_id</text>
</g>
<!-- team&#45;&gt;match -->
<g id="edge13" class="edge">
<title>team&#45;&gt;match</title>
<path fill="none" stroke="#526d82" d="M696.67,-269.45C689.49,-249.76 675.99,-220.11 655,-202 622.2,-173.7 578.28,-155.22 538.92,-143.34"/>
<polygon fill="#526d82" stroke="#526d82" points="539.55,-140.97 532.14,-141.34 538.17,-145.67 539.55,-140.97"/>
<text text-anchor="middle" x="711" y="-221.3" font-family="Arial" font-size="9.00" fill="#334e5e">partecipante</text>
</g>
<!-- tournament -->
<g id="node12" class="node">
<title>tournament</title>
<polygon fill="#f7fafc" stroke="#34506b" points="633.5,-437.5 633.5,-479.5 772.5,-479.5 772.5,-437.5 633.5,-437.5"/>
<text text-anchor="middle" x="703" y="-466.5" font-family="Arial" font-size="10.00" fill="#172b3a">Torneo</text>
<polyline fill="none" stroke="#34506b" points="633.5,-458.5 772.5,-458.5 "/>
<text text-anchor="middle" x="703" y="-445.5" font-family="Arial" font-size="10.00" fill="#172b3a">id; tipo; modalita; stato; date</text>
</g>
<!-- tournament&#45;&gt;locale -->
<g id="edge15" class="edge">
<title>tournament&#45;&gt;locale</title>
<path fill="none" stroke="#526d82" d="M633.34,-439.11C565.05,-421.08 461.68,-393.79 394.5,-376.05"/>
<polygon fill="#526d82" stroke="#526d82" points="395.1,-373.68 387.7,-374.26 393.85,-378.42 395.1,-373.68"/>
<text text-anchor="middle" x="550" y="-405.8" font-family="Arial" font-size="9.00" fill="#334e5e">molti / molti</text>
</g>
<!-- tournament&#45;&gt;match -->
<g id="edge14" class="edge">
<title>tournament&#45;&gt;match</title>
<path fill="none" stroke="#526d82" d="M735.74,-437.35C744.01,-430.64 751.97,-422.43 757,-413 801.22,-330.13 811.91,-267.92 745,-202 715.88,-173.31 616.1,-151.16 539.12,-137.81"/>
<polygon fill="#526d82" stroke="#526d82" points="539.53,-135.4 532.21,-136.63 538.7,-140.23 539.53,-135.4"/>
<text text-anchor="middle" x="815" y="-288.3" font-family="Arial" font-size="9.00" fill="#334e5e">molti / molti</text>
</g>
<!-- tournament&#45;&gt;team -->
<g id="edge16" class="edge">
<title>tournament&#45;&gt;team</title>
<path fill="none" stroke="#526d82" d="M703,-437.48C703,-407.81 703,-352.12 703,-318.76"/>
<polygon fill="#526d82" stroke="#526d82" points="705.45,-318.59 703,-311.59 700.55,-318.59 705.45,-318.59"/>
<text text-anchor="middle" x="726" y="-405.8" font-family="Arial" font-size="9.00" fill="#334e5e">molti / molti</text>
</g>
</g>
</svg>
