<?xml version="1.0" encoding="UTF-8" standalone="no"?>
<!DOCTYPE svg PUBLIC "-//W3C//DTD SVG 1.1//EN"
 "http://www.w3.org/Graphics/SVG/1.1/DTD/svg11.dtd">
<!-- Generated by graphviz version 2.42.4 (0)
 -->
<!-- Title: G Pages: 1 -->
<svg width="1038pt" height="346pt"
 viewBox="0.00 0.00 1038.00 346.00" xmlns="http://www.w3.org/2000/svg" xmlns:xlink="http://www.w3.org/1999/xlink">
<g id="graph0" class="graph" transform="scale(1 1) rotate(0) translate(18 328)">
<title>G</title>
<polygon fill="white" stroke="transparent" points="-18,18 -18,-328 1020,-328 1020,18 -18,18"/>
<g id="clust1" class="cluster">
<title>cluster_front</title>
<path fill="white" stroke="#afc7d8" d="M20,-159C20,-159 227,-159 227,-159 233,-159 239,-165 239,-171 239,-171 239,-290 239,-290 239,-296 233,-302 227,-302 227,-302 20,-302 20,-302 14,-302 8,-296 8,-290 8,-290 8,-171 8,-171 8,-165 14,-159 20,-159"/>
<text text-anchor="middle" x="123.5" y="-286.8" font-family="Arial" font-size="14.00">frontend</text>
</g>
<g id="clust2" class="cluster">
<title>cluster_gateway</title>
<path fill="white" stroke="#afc7d8" d="M308,-159C308,-159 416,-159 416,-159 422,-159 428,-165 428,-171 428,-171 428,-222 428,-222 428,-228 422,-234 416,-234 416,-234 308,-234 308,-234 302,-234 296,-228 296,-222 296,-222 296,-171 296,-171 296,-165 302,-159 308,-159"/>
<text text-anchor="middle" x="362" y="-218.8" font-family="Arial" font-size="14.00">gateway</text>
</g>
<g id="clust3" class="cluster">
<title>cluster_backend</title>
<path fill="white" stroke="#afc7d8" d="M500.5,-91C500.5,-91 982,-91 982,-91 988,-91 994,-97 994,-103 994,-103 994,-222 994,-222 994,-228 988,-234 982,-234 982,-234 500.5,-234 500.5,-234 494.5,-234 488.5,-228 488.5,-222 488.5,-222 488.5,-103 488.5,-103 488.5,-97 494.5,-91 500.5,-91"/>
<text text-anchor="middle" x="741.25" y="-218.8" font-family="Arial" font-size="14.00">backend</text>
</g>
<g id="clust4" class="cluster">
<title>cluster_edge</title>
<path fill="white" stroke="#afc7d8" d="M322,-8C322,-8 776,-8 776,-8 782,-8 788,-14 788,-20 788,-20 788,-71 788,-71 788,-77 782,-83 776,-83 776,-83 322,-83 322,-83 316,-83 310,-77 310,-71 310,-71 310,-20 310,-20 310,-14 316,-8 322,-8"/>
<text text-anchor="middle" x="549" y="-67.8" font-family="Arial" font-size="14.00">simulator</text>
</g>
<!-- pages -->
<g id="node1" class="node">
<title>pages</title>
<path fill="#f4f7fb" stroke="#34506b" d="M77,-237C77,-237 28,-237 28,-237 22,-237 16,-231 16,-225 16,-225 16,-213 16,-213 16,-207 22,-201 28,-201 28,-201 77,-201 77,-201 83,-201 89,-207 89,-213 89,-213 89,-225 89,-225 89,-231 83,-237 77,-237"/>
<text text-anchor="middle" x="52.5" y="-216.5" font-family="Arial" font-size="10.00" fill="#172b3a">pagine HTML</text>
</g>
<!-- js -->
<g id="node2" class="node">
<title>js</title>
<path fill="#f4f7fb" stroke="#34506b" d="M219,-203C219,-203 150,-203 150,-203 144,-203 138,-197 138,-191 138,-191 138,-179 138,-179 138,-173 144,-167 150,-167 150,-167 219,-167 219,-167 225,-167 231,-173 231,-179 231,-179 231,-191 231,-191 231,-197 225,-203 219,-203"/>
<text text-anchor="middle" x="184.5" y="-182.5" font-family="Arial" font-size="10.00" fill="#172b3a">moduli JavaScript</text>
</g>
<!-- pages&#45;&gt;js -->
<g id="edge1" class="edge">
<title>pages&#45;&gt;js</title>
<path fill="none" stroke="#526d82" d="M89.02,-209.71C101.94,-206.33 116.84,-202.44 130.92,-198.75"/>
<polygon fill="#526d82" stroke="#526d82" points="131.61,-201.1 137.76,-196.96 130.37,-196.36 131.61,-201.1"/>
</g>
<!-- css -->
<g id="node3" class="node">
<title>css</title>
<path fill="#f4f7fb" stroke="#34506b" d="M214,-271C214,-271 155,-271 155,-271 149,-271 143,-265 143,-259 143,-259 143,-247 143,-247 143,-241 149,-235 155,-235 155,-235 214,-235 214,-235 220,-235 226,-241 226,-247 226,-247 226,-259 226,-259 226,-265 220,-271 214,-271"/>
<text text-anchor="middle" x="184.5" y="-250.5" font-family="Arial" font-size="10.00" fill="#172b3a">stile e immagini</text>
</g>
<!-- pages&#45;&gt;css -->
<g id="edge2" class="edge">
<title>pages&#45;&gt;css</title>
<path fill="none" stroke="#526d82" d="M89.02,-228.29C103.5,-232.08 120.44,-236.51 135.96,-240.57"/>
<polygon fill="#526d82" stroke="#526d82" points="135.58,-243 142.97,-242.4 136.82,-238.26 135.58,-243"/>
</g>
<!-- gw -->
<g id="node4" class="node">
<title>gw</title>
<path fill="#f4f7fb" stroke="#34506b" d="M408,-203C408,-203 316,-203 316,-203 310,-203 304,-197 304,-191 304,-191 304,-179 304,-179 304,-173 310,-167 316,-167 316,-167 408,-167 408,-167 414,-167 420,-173 420,-179 420,-179 420,-191 420,-191 420,-197 414,-203 408,-203"/>
<text text-anchor="middle" x="362" y="-188" font-family="Arial" font-size="10.00" fill="#172b3a">server.js</text>
<text text-anchor="middle" x="362" y="-177" font-family="Arial" font-size="10.00" fill="#172b3a">instradamento richieste</text>
</g>
<!-- js&#45;&gt;gw -->
<g id="edge12" class="edge">
<title>js&#45;&gt;gw</title>
<path fill="none" stroke="#526d82" d="M231.15,-185C251.14,-185 274.94,-185 296.67,-185"/>
<polygon fill="#526d82" stroke="#526d82" points="296.95,-187.45 303.95,-185 296.95,-182.55 296.95,-187.45"/>
<text text-anchor="middle" x="267.5" y="-187.8" font-family="Arial" font-size="9.00" fill="#334e5e">REST</text>
</g>
<!-- routes -->
<g id="node5" class="node">
<title>routes</title>
<path fill="#f4f7fb" stroke="#34506b" d="M538.5,-203C538.5,-203 508.5,-203 508.5,-203 502.5,-203 496.5,-197 496.5,-191 496.5,-191 496.5,-179 496.5,-179 496.5,-173 502.5,-167 508.5,-167 508.5,-167 538.5,-167 538.5,-167 544.5,-167 550.5,-173 550.5,-179 550.5,-179 550.5,-191 550.5,-191 550.5,-197 544.5,-203 538.5,-203"/>
<text text-anchor="middle" x="523.5" y="-182.5" font-family="Arial" font-size="10.00" fill="#172b3a">routes</text>
</g>
<!-- gw&#45;&gt;routes -->
<g id="edge13" class="edge">
<title>gw&#45;&gt;routes</title>
<path fill="none" stroke="#526d82" d="M420.13,-185C443.38,-185 469.42,-185 489.42,-185"/>
<polygon fill="#526d82" stroke="#526d82" points="489.5,-187.45 496.5,-185 489.5,-182.55 489.5,-187.45"/>
<text text-anchor="middle" x="455.5" y="-187.8" font-family="Arial" font-size="9.00" fill="#334e5e">proxy</text>
</g>
<!-- controllers -->
<g id="node6" class="node">
<title>controllers</title>
<path fill="#f4f7fb" stroke="#34506b" d="M751,-203C751,-203 715,-203 715,-203 709,-203 703,-197 703,-191 703,-191 703,-179 703,-179 703,-173 709,-167 715,-167 715,-167 751,-167 751,-167 757,-167 763,-173 763,-179 763,-179 763,-191 763,-191 763,-197 757,-203 751,-203"/>
<text text-anchor="middle" x="733" y="-182.5" font-family="Arial" font-size="10.00" fill="#172b3a">controllers</text>
</g>
<!-- routes&#45;&gt;controllers -->
<g id="edge3" class="edge">
<title>routes&#45;&gt;controllers</title>
<path fill="none" stroke="#526d82" d="M550.78,-185C587.51,-185 654.33,-185 695.76,-185"/>
<polygon fill="#526d82" stroke="#526d82" points="695.93,-187.45 702.93,-185 695.93,-182.55 695.93,-187.45"/>
</g>
<!-- services -->
<g id="node7" class="node">
<title>services</title>
<path fill="#f4f7fb" stroke="#34506b" d="M871,-169C871,-169 841,-169 841,-169 835,-169 829,-163 829,-157 829,-157 829,-145 829,-145 829,-139 835,-133 841,-133 841,-133 871,-133 871,-133 877,-133 883,-139 883,-145 883,-145 883,-157 883,-157 883,-163 877,-169 871,-169"/>
<text text-anchor="middle" x="856" y="-148.5" font-family="Arial" font-size="10.00" fill="#172b3a">services</text>
</g>
<!-- controllers&#45;&gt;services -->
<g id="edge4" class="edge">
<title>controllers&#45;&gt;services</title>
<path fill="none" stroke="#526d82" d="M763.29,-176.77C780.95,-171.81 803.49,-165.47 821.81,-160.33"/>
<polygon fill="#526d82" stroke="#526d82" points="822.78,-162.6 828.86,-158.34 821.46,-157.88 822.78,-162.6"/>
</g>
<!-- utils -->
<g id="node8" class="node">
<title>utils</title>
<path fill="#f4f7fb" stroke="#34506b" d="M974,-203C974,-203 944,-203 944,-203 938,-203 932,-197 932,-191 932,-191 932,-179 932,-179 932,-173 938,-167 944,-167 944,-167 974,-167 974,-167 980,-167 986,-173 986,-179 986,-179 986,-191 986,-191 986,-197 980,-203 974,-203"/>
<text text-anchor="middle" x="959" y="-182.5" font-family="Arial" font-size="10.00" fill="#172b3a">utils</text>
</g>
<!-- controllers&#45;&gt;utils -->
<g id="edge5" class="edge">
<title>controllers&#45;&gt;utils</title>
<path fill="none" stroke="#526d82" d="M763.28,-185C804.87,-185 880.85,-185 924.59,-185"/>
<polygon fill="#526d82" stroke="#526d82" points="924.84,-187.45 931.84,-185 924.84,-182.55 924.84,-187.45"/>
</g>
<!-- db -->
<g id="node9" class="node">
<title>db</title>
<path fill="#f4f7fb" stroke="#34506b" d="M974,-135C974,-135 944,-135 944,-135 938,-135 932,-129 932,-123 932,-123 932,-111 932,-111 932,-105 938,-99 944,-99 944,-99 974,-99 974,-99 980,-99 986,-105 986,-111 986,-111 986,-123 986,-123 986,-129 980,-135 974,-135"/>
<text text-anchor="middle" x="959" y="-114.5" font-family="Arial" font-size="10.00" fill="#172b3a">db.js</text>
</g>
<!-- controllers&#45;&gt;db -->
<g id="edge6" class="edge">
<title>controllers&#45;&gt;db</title>
<path fill="none" stroke="#526d82" d="M763.05,-167.68C771.26,-162.53 780.11,-156.72 788,-151 807.17,-137.11 806.73,-125.03 829,-117 860,-105.82 897.99,-107.49 924.69,-110.94"/>
<polygon fill="#526d82" stroke="#526d82" points="924.63,-113.4 931.9,-111.95 925.31,-108.55 924.63,-113.4"/>
</g>
<!-- services&#45;&gt;utils -->
<g id="edge7" class="edge">
<title>services&#45;&gt;utils</title>
<path fill="none" stroke="#526d82" d="M883.01,-159.76C895.75,-164.05 911.24,-169.26 924.82,-173.83"/>
<polygon fill="#526d82" stroke="#526d82" points="924.31,-176.24 931.73,-176.16 925.87,-171.6 924.31,-176.24"/>
</g>
<!-- services&#45;&gt;db -->
<g id="edge8" class="edge">
<title>services&#45;&gt;db</title>
<path fill="none" stroke="#526d82" d="M883.01,-142.24C895.75,-137.95 911.24,-132.74 924.82,-128.17"/>
<polygon fill="#526d82" stroke="#526d82" points="925.87,-130.4 931.73,-125.84 924.31,-125.76 925.87,-130.4"/>
</g>
<!-- mqtt -->
<g id="node10" class="node">
<title>mqtt</title>
<path fill="#f4f7fb" stroke="#34506b" d="M756,-135C756,-135 710,-135 710,-135 704,-135 698,-129 698,-123 698,-123 698,-111 698,-111 698,-105 704,-99 710,-99 710,-99 756,-99 756,-99 762,-99 768,-105 768,-111 768,-111 768,-123 768,-123 768,-129 762,-135 756,-135"/>
<text text-anchor="middle" x="733" y="-114.5" font-family="Arial" font-size="10.00" fill="#172b3a">mqttClient.js</text>
</g>
<!-- mqtt&#45;&gt;services -->
<g id="edge9" class="edge">
<title>mqtt&#45;&gt;services</title>
<path fill="none" stroke="#526d82" d="M768.03,-126.56C784.91,-131.3 805.21,-137.01 821.96,-141.72"/>
<polygon fill="#526d82" stroke="#526d82" points="821.49,-144.13 828.9,-143.67 822.82,-139.41 821.49,-144.13"/>
</g>
<!-- sim -->
<g id="node11" class="node">
<title>sim</title>
<path fill="#f4f7fb" stroke="#34506b" d="M544,-52C544,-52 503,-52 503,-52 497,-52 491,-46 491,-40 491,-40 491,-28 491,-28 491,-22 497,-16 503,-16 503,-16 544,-16 544,-16 550,-16 556,-22 556,-28 556,-28 556,-40 556,-40 556,-46 550,-52 544,-52"/>
<text text-anchor="middle" x="523.5" y="-31.5" font-family="Arial" font-size="10.00" fill="#172b3a">simulator.js</text>
</g>
<!-- sim&#45;&gt;controllers -->
<g id="edge15" class="edge">
<title>sim&#45;&gt;controllers</title>
<path fill="none" stroke="#526d82" d="M535.23,-52.06C545.27,-67.81 561.48,-90.5 580,-106 615.35,-135.58 663.6,-158.29 696.18,-171.62"/>
<polygon fill="#526d82" stroke="#526d82" points="695.48,-173.98 702.89,-174.32 697.31,-169.43 695.48,-173.98"/>
<text text-anchor="middle" x="621" y="-156.8" font-family="Arial" font-size="9.00" fill="#334e5e">config REST interna</text>
</g>
<!-- sim&#45;&gt;mqtt -->
<g id="edge14" class="edge">
<title>sim&#45;&gt;mqtt</title>
<path fill="none" stroke="#526d82" d="M556.01,-46.61C592.13,-61.05 651.44,-84.77 691.09,-100.64"/>
<polygon fill="#526d82" stroke="#526d82" points="690.36,-102.98 697.77,-103.31 692.18,-98.43 690.36,-102.98"/>
<text text-anchor="middle" x="621" y="-90.8" font-family="Arial" font-size="9.00" fill="#334e5e">MQTT</text>
</g>
<!-- queue -->
<g id="node12" class="node">
<title>queue</title>
<path fill="#f4f7fb" stroke="#34506b" d="M768,-52C768,-52 698,-52 698,-52 692,-52 686,-46 686,-40 686,-40 686,-28 686,-28 686,-22 692,-16 698,-16 698,-16 768,-16 768,-16 774,-16 780,-22 780,-28 780,-28 780,-40 780,-40 780,-46 774,-52 768,-52"/>
<text text-anchor="middle" x="733" y="-31.5" font-family="Arial" font-size="10.00" fill="#172b3a">coda JSON offline</text>
</g>
<!-- sim&#45;&gt;queue -->
<g id="edge10" class="edge">
<title>sim&#45;&gt;queue</title>
<path fill="none" stroke="#526d82" d="M556.01,-34C588.57,-34 639.96,-34 678.82,-34"/>
<polygon fill="#526d82" stroke="#526d82" points="678.92,-36.45 685.92,-34 678.92,-31.55 678.92,-36.45"/>
</g>
<!-- ui -->
<g id="node13" class="node">
<title>ui</title>
<path fill="#f4f7fb" stroke="#34506b" d="M394,-52C394,-52 330,-52 330,-52 324,-52 318,-46 318,-40 318,-40 318,-28 318,-28 318,-22 324,-16 330,-16 330,-16 394,-16 394,-16 400,-16 406,-22 406,-28 406,-28 406,-40 406,-40 406,-46 400,-52 394,-52"/>
<text text-anchor="middle" x="362" y="-31.5" font-family="Arial" font-size="10.00" fill="#172b3a">interfaccia locale</text>
</g>
<!-- ui&#45;&gt;sim -->
<g id="edge11" class="edge">
<title>ui&#45;&gt;sim</title>
<path fill="none" stroke="#526d82" d="M406.16,-34C430.41,-34 460.42,-34 483.88,-34"/>
<polygon fill="#526d82" stroke="#526d82" points="483.94,-36.45 490.94,-34 483.94,-31.55 483.94,-36.45"/>
</g>
</g>
</svg>
