<?xml version="1.0" encoding="UTF-8" standalone="no"?>
<!DOCTYPE svg PUBLIC "-//W3C//DTD SVG 1.1//EN"
 "http://www.w3.org/Graphics/SVG/1.1/DTD/svg11.dtd">
<!-- Generated by graphviz version 2.42.4 (0)
 -->
<!-- Title: G Pages: 1 -->
<svg width="1202pt" height="498pt"
 viewBox="0.00 0.00 1201.50 498.00" xmlns="http://www.w3.org/2000/svg" xmlns:xlink="http://www.w3.org/1999/xlink">
<g id="graph0" class="graph" transform="scale(1 1) rotate(0) translate(18 480)">
<title>G</title>
<polygon fill="white" stroke="transparent" points="-18,18 -18,-480 1183.5,-480 1183.5,18 -18,18"/>
<!-- matchController -->
<g id="node1" class="node">
<title>matchController</title>
<polygon fill="#f7fafc" stroke="#34506b" points="405,-318.5 405,-360.5 702,-360.5 702,-318.5 405,-318.5"/>
<text text-anchor="middle" x="553.5" y="-347.5" font-family="Arial" font-size="10.00" fill="#172b3a">matchController</text>
<polyline fill="none" stroke="#34506b" points="405,-339.5 702,-339.5 "/>
<text text-anchor="middle" x="553.5" y="-326.5" font-family="Arial" font-size="10.00" fill="#172b3a">startMatch(); addMatchEvent(); endMatch(); simulateMatchMqtt()</text>
</g>
<!-- matchService -->
<g id="node2" class="node">
<title>matchService</title>
<polygon fill="#f7fafc" stroke="#34506b" points="434,-184.5 434,-226.5 735,-226.5 735,-184.5 434,-184.5"/>
<text text-anchor="middle" x="584.5" y="-213.5" font-family="Arial" font-size="10.00" fill="#172b3a">matchEventService</text>
<polyline fill="none" stroke="#34506b" points="434,-205.5 735,-205.5 "/>
<text text-anchor="middle" x="584.5" y="-192.5" font-family="Arial" font-size="10.00" fill="#172b3a">processMatchEvent(); finishMatch(); saveEvent(); getMatchRow()</text>
</g>
<!-- matchController&#45;&gt;matchService -->
<g id="edge1" class="edge">
<title>matchController&#45;&gt;matchService</title>
<path fill="none" stroke="#526d82" d="M558.21,-318.45C563.51,-295.87 572.16,-259.04 578.08,-233.84"/>
<polygon fill="#526d82" stroke="#526d82" points="580.53,-234.11 579.75,-226.74 575.76,-232.99 580.53,-234.11"/>
</g>
<!-- gameRules -->
<g id="node3" class="node">
<title>gameRules</title>
<polygon fill="#f7fafc" stroke="#34506b" points="0,-92.5 0,-134.5 331,-134.5 331,-92.5 0,-92.5"/>
<text text-anchor="middle" x="165.5" y="-121.5" font-family="Arial" font-size="10.00" fill="#172b3a">gameRules</text>
<polyline fill="none" stroke="#34506b" points="0,-113.5 331,-113.5 "/>
<text text-anchor="middle" x="165.5" y="-100.5" font-family="Arial" font-size="10.00" fill="#172b3a">normalizeGameRules(); eventAction(); scoreValue(); reachedScoreLimit()</text>
</g>
<!-- matchService&#45;&gt;gameRules -->
<g id="edge3" class="edge">
<title>matchService&#45;&gt;gameRules</title>
<path fill="none" stroke="#526d82" d="M491.25,-184.47C424.34,-170.1 334.28,-150.75 265.81,-136.05"/>
<polygon fill="#526d82" stroke="#526d82" points="266.2,-133.62 258.84,-134.55 265.17,-138.41 266.2,-133.62"/>
</g>
<!-- actuator -->
<g id="node5" class="node">
<title>actuator</title>
<polygon fill="#f7fafc" stroke="#34506b" points="363.5,-92.5 363.5,-134.5 455.5,-134.5 455.5,-92.5 363.5,-92.5"/>
<text text-anchor="middle" x="409.5" y="-121.5" font-family="Arial" font-size="10.00" fill="#172b3a">actuatorService</text>
<polyline fill="none" stroke="#34506b" points="363.5,-113.5 455.5,-113.5 "/>
<text text-anchor="middle" x="409.5" y="-100.5" font-family="Arial" font-size="10.00" fill="#172b3a">updateActuators()</text>
</g>
<!-- matchService&#45;&gt;actuator -->
<g id="edge4" class="edge">
<title>matchService&#45;&gt;actuator</title>
<path fill="none" stroke="#526d82" d="M545.23,-184.3C518.54,-170.58 483.16,-152.38 455.21,-138.01"/>
<polygon fill="#526d82" stroke="#526d82" points="455.99,-135.65 448.64,-134.63 453.75,-140.01 455.99,-135.65"/>
</g>
<!-- tournament -->
<g id="node6" class="node">
<title>tournament</title>
<polygon fill="#f7fafc" stroke="#34506b" points="487.5,-92.5 487.5,-134.5 777.5,-134.5 777.5,-92.5 487.5,-92.5"/>
<text text-anchor="middle" x="632.5" y="-121.5" font-family="Arial" font-size="10.00" fill="#172b3a">tournamentService</text>
<polyline fill="none" stroke="#34506b" points="487.5,-113.5 777.5,-113.5 "/>
<text text-anchor="middle" x="632.5" y="-100.5" font-family="Arial" font-size="10.00" fill="#172b3a">linkMatchToActiveTournament(); getTournamentRankingRows()</text>
</g>
<!-- matchService&#45;&gt;tournament -->
<g id="edge5" class="edge">
<title>matchService&#45;&gt;tournament</title>
<path fill="none" stroke="#526d82" d="M595.39,-184.08C602.19,-171.33 611.01,-154.79 618.35,-141.03"/>
<polygon fill="#526d82" stroke="#526d82" points="620.68,-141.86 621.82,-134.53 616.36,-139.56 620.68,-141.86"/>
</g>
<!-- db -->
<g id="node9" class="node">
<title>db</title>
<polygon fill="#f7fafc" stroke="#34506b" points="725,-0.5 725,-42.5 928,-42.5 928,-0.5 725,-0.5"/>
<text text-anchor="middle" x="826.5" y="-29.5" font-family="Arial" font-size="10.00" fill="#172b3a">db</text>
<polyline fill="none" stroke="#34506b" points="725,-21.5 928,-21.5 "/>
<text text-anchor="middle" x="826.5" y="-8.5" font-family="Arial" font-size="10.00" fill="#172b3a">query(); waitForDatabase(); pingDatabase()</text>
</g>
<!-- matchService&#45;&gt;db -->
<g id="edge6" class="edge">
<title>matchService&#45;&gt;db</title>
<path fill="none" stroke="#526d82" d="M708.65,-184.48C739.77,-174.18 770.73,-158.6 793.5,-135 815.63,-112.07 823.03,-75.12 825.45,-49.86"/>
<polygon fill="#526d82" stroke="#526d82" points="827.9,-49.93 826.02,-42.75 823.01,-49.53 827.9,-49.93"/>
</g>
<!-- mqttClient -->
<g id="node4" class="node">
<title>mqttClient</title>
<polygon fill="#f7fafc" stroke="#34506b" points="734.5,-318.5 734.5,-360.5 1020.5,-360.5 1020.5,-318.5 734.5,-318.5"/>
<text text-anchor="middle" x="877.5" y="-347.5" font-family="Arial" font-size="10.00" fill="#172b3a">mqttClient</text>
<polyline fill="none" stroke="#34506b" points="734.5,-339.5 1020.5,-339.5 "/>
<text text-anchor="middle" x="877.5" y="-326.5" font-family="Arial" font-size="10.00" fill="#172b3a">connectMqtt(); processHeartbeat(); markSilentDevicesOffline()</text>
</g>
<!-- mqttClient&#45;&gt;matchService -->
<g id="edge2" class="edge">
<title>mqttClient&#45;&gt;matchService</title>
<path fill="none" stroke="#526d82" d="M833,-318.45C779.93,-294.54 691.4,-254.66 635.58,-229.51"/>
<polygon fill="#526d82" stroke="#526d82" points="636.33,-227.16 628.94,-226.52 634.31,-231.63 636.33,-227.16"/>
</g>
<!-- mqttClient&#45;&gt;db -->
<g id="edge7" class="edge">
<title>mqttClient&#45;&gt;db</title>
<path fill="none" stroke="#526d82" d="M877.53,-318.31C877.1,-272.64 873.3,-158.27 847.5,-67 845.83,-61.09 843.44,-54.99 840.87,-49.28"/>
<polygon fill="#526d82" stroke="#526d82" points="843.01,-48.06 837.8,-42.78 838.58,-50.15 843.01,-48.06"/>
</g>
<!-- actuator&#45;&gt;db -->
<g id="edge8" class="edge">
<title>actuator&#45;&gt;db</title>
<path fill="none" stroke="#526d82" d="M455.69,-96.52C460.99,-94.9 466.35,-93.35 471.5,-92 553.14,-70.6 646.89,-52.52 717.54,-40.17"/>
<polygon fill="#526d82" stroke="#526d82" points="718.26,-42.53 724.74,-38.91 717.42,-37.7 718.26,-42.53"/>
</g>
<!-- tournament&#45;&gt;db -->
<g id="edge9" class="edge">
<title>tournament&#45;&gt;db</title>
<path fill="none" stroke="#526d82" d="M676.04,-92.3C705.87,-78.46 745.5,-60.08 776.61,-45.65"/>
<polygon fill="#526d82" stroke="#526d82" points="777.79,-47.8 783.11,-42.63 775.73,-43.35 777.79,-47.8"/>
</g>
<!-- internal -->
<g id="node7" class="node">
<title>internal</title>
<polygon fill="#f7fafc" stroke="#34506b" points="943.5,-251.5 943.5,-293.5 1165.5,-293.5 1165.5,-251.5 943.5,-251.5"/>
<text text-anchor="middle" x="1054.5" y="-280.5" font-family="Arial" font-size="10.00" fill="#172b3a">internalController</text>
<polyline fill="none" stroke="#34506b" points="943.5,-272.5 1165.5,-272.5 "/>
<text text-anchor="middle" x="1054.5" y="-259.5" font-family="Arial" font-size="10.00" fill="#172b3a">getEdgeGameConfiguration(); requireEdgeKey()</text>
</g>
<!-- internal&#45;&gt;db -->
<g id="edge10" class="edge">
<title>internal&#45;&gt;db</title>
<path fill="none" stroke="#526d82" d="M1045.42,-251.23C1026.67,-211.31 980.12,-121.66 917.5,-67 908.11,-58.8 896.94,-51.73 885.71,-45.8"/>
<polygon fill="#526d82" stroke="#526d82" points="886.81,-43.61 879.47,-42.61 884.59,-47.98 886.81,-43.61"/>
</g>
<!-- simulator -->
<g id="node8" class="node">
<title>simulator</title>
<polygon fill="#f7fafc" stroke="#34506b" points="829.5,-419.5 829.5,-461.5 1117.5,-461.5 1117.5,-419.5 829.5,-419.5"/>
<text text-anchor="middle" x="973.5" y="-448.5" font-family="Arial" font-size="10.00" fill="#172b3a">EdgeSimulator</text>
<polyline fill="none" stroke="#34506b" points="829.5,-440.5 1117.5,-440.5 "/>
<text text-anchor="middle" x="973.5" y="-427.5" font-family="Arial" font-size="10.00" fill="#172b3a">loadConfiguration(); simulate(); publishOrQueue(); syncQueue()</text>
</g>
<!-- simulator&#45;&gt;mqttClient -->
<g id="edge12" class="edge">
<title>simulator&#45;&gt;mqttClient</title>
<path fill="none" stroke="#526d82" d="M954.07,-419.47C939.11,-404.03 918.32,-382.6 902.18,-365.95"/>
<polygon fill="#526d82" stroke="#526d82" points="903.53,-363.82 896.9,-360.5 900.01,-367.24 903.53,-363.82"/>
<text text-anchor="middle" x="940" y="-387.8" font-family="Arial" font-size="9.00" fill="#334e5e">MQTT</text>
</g>
<!-- simulator&#45;&gt;internal -->
<g id="edge11" class="edge">
<title>simulator&#45;&gt;internal</title>
<path fill="none" stroke="#526d82" d="M994.17,-419.39C1008.22,-404.54 1026.09,-383.14 1036.5,-361 1045.39,-342.09 1049.91,-318.84 1052.2,-301.07"/>
<polygon fill="#526d82" stroke="#526d82" points="1054.67,-301.05 1053.05,-293.81 1049.8,-300.48 1054.67,-301.05"/>
<text text-anchor="middle" x="1034" y="-387.8" font-family="Arial" font-size="9.00" fill="#334e5e">REST</text>
</g>
</g>
</svg>
