<?xml version="1.0" encoding="UTF-8" standalone="no"?>
<!DOCTYPE svg PUBLIC "-//W3C//DTD SVG 1.1//EN"
 "http://www.w3.org/Graphics/SVG/1.1/DTD/svg11.dtd">
<!-- Generated by graphviz version 2.42.4 (0)
 -->
<!-- Title: G Pages: 1 -->
<svg width="1369pt" height="268pt"
 viewBox="0.00 0.00 1369.00 267.92" xmlns="http://www.w3.org/2000/svg" xmlns:xlink="http://www.w3.org/1999/xlink">
<g id="graph0" class="graph" transform="scale(1 1) rotate(0) translate(18 249.92)">
<title>G</title>
<polygon fill="white" stroke="transparent" points="-18,18 -18,-249.92 1351,-249.92 1351,18 -18,18"/>
<!-- user -->
<g id="node1" class="node">
<title>user</title>
<path fill="#f4f7fb" stroke="#34506b" d="M92,-115.92C92,-115.92 12,-115.92 12,-115.92 6,-115.92 0,-109.92 0,-103.92 0,-103.92 0,-91.92 0,-91.92 0,-85.92 6,-79.92 12,-79.92 12,-79.92 92,-79.92 92,-79.92 98,-79.92 104,-85.92 104,-91.92 104,-91.92 104,-103.92 104,-103.92 104,-109.92 98,-115.92 92,-115.92"/>
<text text-anchor="middle" x="52" y="-95.42" font-family="Arial" font-size="10.00" fill="#172b3a">Admin locale</text>
</g>
<!-- frontend -->
<g id="node2" class="node">
<title>frontend</title>
<path fill="#f4f7fb" stroke="#34506b" d="M294,-115.92C294,-115.92 214,-115.92 214,-115.92 208,-115.92 202,-109.92 202,-103.92 202,-103.92 202,-91.92 202,-91.92 202,-85.92 208,-79.92 214,-79.92 214,-79.92 294,-79.92 294,-79.92 300,-79.92 306,-85.92 306,-91.92 306,-91.92 306,-103.92 306,-103.92 306,-109.92 300,-115.92 294,-115.92"/>
<text text-anchor="middle" x="254" y="-95.42" font-family="Arial" font-size="10.00" fill="#172b3a">Frontend</text>
</g>
<!-- user&#45;&gt;frontend -->
<g id="edge1" class="edge">
<title>user&#45;&gt;frontend</title>
<path fill="none" stroke="#526d82" d="M104.25,-97.92C131.88,-97.92 166.09,-97.92 194.73,-97.92"/>
<polygon fill="#526d82" stroke="#526d82" points="194.89,-100.37 201.89,-97.92 194.89,-95.47 194.89,-100.37"/>
<text text-anchor="middle" x="153" y="-100.72" font-family="Arial" font-size="9.00" fill="#334e5e">avvia partita</text>
</g>
<!-- gateway -->
<g id="node3" class="node">
<title>gateway</title>
<path fill="#f4f7fb" stroke="#34506b" d="M530,-139.92C530,-139.92 450,-139.92 450,-139.92 444,-139.92 438,-133.92 438,-127.92 438,-127.92 438,-115.92 438,-115.92 438,-109.92 444,-103.92 450,-103.92 450,-103.92 530,-103.92 530,-103.92 536,-103.92 542,-109.92 542,-115.92 542,-115.92 542,-127.92 542,-127.92 542,-133.92 536,-139.92 530,-139.92"/>
<text text-anchor="middle" x="490" y="-119.42" font-family="Arial" font-size="10.00" fill="#172b3a">API Gateway</text>
</g>
<!-- frontend&#45;&gt;gateway -->
<g id="edge2" class="edge">
<title>frontend&#45;&gt;gateway</title>
<path fill="none" stroke="#526d82" d="M285.66,-115.93C298.84,-122.68 314.71,-129.53 330,-132.92 362.89,-140.22 400.45,-138.09 430.81,-133.84"/>
<polygon fill="#526d82" stroke="#526d82" points="431.4,-136.23 437.96,-132.79 430.68,-131.39 431.4,-136.23"/>
<text text-anchor="middle" x="372" y="-139.72" font-family="Arial" font-size="9.00" fill="#334e5e">POST /matches/start</text>
</g>
<!-- frontend&#45;&gt;gateway -->
<g id="edge5" class="edge">
<title>frontend&#45;&gt;gateway</title>
<path fill="none" stroke="#526d82" d="M306.06,-103.16C342.78,-106.92 392.35,-112.01 430.63,-115.94"/>
<polygon fill="#526d82" stroke="#526d82" points="430.43,-118.38 437.64,-116.65 430.93,-113.5 430.43,-118.38"/>
<text text-anchor="middle" x="372" y="-116.72" font-family="Arial" font-size="9.00" fill="#334e5e">POST /simulate&#45;mqtt</text>
</g>
<!-- frontend&#45;&gt;gateway -->
<g id="edge13" class="edge">
<title>frontend&#45;&gt;gateway</title>
<path fill="none" stroke="#526d82" d="M306.04,-87.06C337.5,-82.16 378.48,-79.04 414,-86.92 426.9,-89.78 440.21,-95.11 451.97,-100.75"/>
<polygon fill="#526d82" stroke="#526d82" points="450.98,-102.99 458.34,-103.91 453.15,-98.6 450.98,-102.99"/>
<text text-anchor="middle" x="372" y="-89.72" font-family="Arial" font-size="9.00" fill="#334e5e">GET /matches/id</text>
</g>
<!-- match -->
<g id="node4" class="node">
<title>match</title>
<path fill="#f4f7fb" stroke="#34506b" d="M769,-115.92C769,-115.92 689,-115.92 689,-115.92 683,-115.92 677,-109.92 677,-103.92 677,-103.92 677,-91.92 677,-91.92 677,-85.92 683,-79.92 689,-79.92 689,-79.92 769,-79.92 769,-79.92 775,-79.92 781,-85.92 781,-91.92 781,-91.92 781,-103.92 781,-103.92 781,-109.92 775,-115.92 769,-115.92"/>
<text text-anchor="middle" x="729" y="-95.42" font-family="Arial" font-size="10.00" fill="#172b3a">Match Service</text>
</g>
<!-- gateway&#45;&gt;match -->
<g id="edge3" class="edge">
<title>gateway&#45;&gt;match</title>
<path fill="none" stroke="#526d82" d="M542.27,-132.78C574.42,-137.78 616.54,-141.01 653,-132.92 665.9,-130.06 679.21,-124.74 690.97,-119.09"/>
<polygon fill="#526d82" stroke="#526d82" points="692.15,-121.24 697.34,-115.93 689.98,-116.85 692.15,-121.24"/>
<text text-anchor="middle" x="609.5" y="-139.72" font-family="Arial" font-size="9.00" fill="#334e5e">inoltro REST</text>
</g>
<!-- gateway&#45;&gt;match -->
<g id="edge6" class="edge">
<title>gateway&#45;&gt;match</title>
<path fill="none" stroke="#526d82" d="M542.13,-116.74C579.67,-112.94 630.71,-107.77 669.8,-103.82"/>
<polygon fill="#526d82" stroke="#526d82" points="670.24,-106.23 676.96,-103.09 669.75,-101.36 670.24,-106.23"/>
<text text-anchor="middle" x="609.5" y="-116.72" font-family="Arial" font-size="9.00" fill="#334e5e">richiesta simulazione</text>
</g>
<!-- gateway&#45;&gt;match -->
<g id="edge14" class="edge">
<title>gateway&#45;&gt;match</title>
<path fill="none" stroke="#526d82" d="M521.66,-103.91C534.84,-97.16 550.71,-90.31 566,-86.92 599.76,-79.43 638.36,-81.65 669.41,-85.98"/>
<polygon fill="#526d82" stroke="#526d82" points="669.45,-88.46 676.73,-87.06 670.16,-83.62 669.45,-88.46"/>
<text text-anchor="middle" x="609.5" y="-89.72" font-family="Arial" font-size="9.00" fill="#334e5e">lettura</text>
</g>
<!-- match&#45;&gt;frontend -->
<g id="edge15" class="edge">
<title>match&#45;&gt;frontend</title>
<path fill="none" stroke="#526d82" d="M678.9,-79.83C670.37,-77.38 661.51,-75.25 653,-73.92 511.16,-51.78 471.84,-51.78 330,-73.92 323.75,-74.9 317.31,-76.3 310.95,-77.95"/>
<polygon fill="#526d82" stroke="#526d82" points="310.2,-75.62 304.1,-79.83 311.5,-80.35 310.2,-75.62"/>
<text text-anchor="middle" x="490" y="-61.72" font-family="Arial" font-size="9.00" fill="#334e5e">punteggio ed eventi</text>
</g>
<!-- edgeNode -->
<g id="node5" class="node">
<title>edgeNode</title>
<path fill="#f4f7fb" stroke="#34506b" d="M1063,-231.92C1063,-231.92 983,-231.92 983,-231.92 977,-231.92 971,-225.92 971,-219.92 971,-219.92 971,-207.92 971,-207.92 971,-201.92 977,-195.92 983,-195.92 983,-195.92 1063,-195.92 1063,-195.92 1069,-195.92 1075,-201.92 1075,-207.92 1075,-207.92 1075,-219.92 1075,-219.92 1075,-225.92 1069,-231.92 1063,-231.92"/>
<text text-anchor="middle" x="1023" y="-211.42" font-family="Arial" font-size="10.00" fill="#172b3a">Edge</text>
</g>
<!-- match&#45;&gt;edgeNode -->
<g id="edge7" class="edge">
<title>match&#45;&gt;edgeNode</title>
<path fill="none" stroke="#526d82" d="M742.36,-116.04C755.64,-134.01 778.46,-160.83 805,-174.92 854.42,-201.17 918.15,-210.15 963.74,-213.04"/>
<polygon fill="#526d82" stroke="#526d82" points="963.77,-215.49 970.9,-213.45 964.05,-210.6 963.77,-215.49"/>
<text text-anchor="middle" x="876" y="-213.72" font-family="Arial" font-size="9.00" fill="#334e5e">POST /simulate</text>
</g>
<!-- broker -->
<g id="node6" class="node">
<title>broker</title>
<path fill="#f4f7fb" stroke="#34506b" d="M1321,-171.92C1321,-171.92 1241,-171.92 1241,-171.92 1235,-171.92 1229,-165.92 1229,-159.92 1229,-159.92 1229,-147.92 1229,-147.92 1229,-141.92 1235,-135.92 1241,-135.92 1241,-135.92 1321,-135.92 1321,-135.92 1327,-135.92 1333,-141.92 1333,-147.92 1333,-147.92 1333,-159.92 1333,-159.92 1333,-165.92 1327,-171.92 1321,-171.92"/>
<text text-anchor="middle" x="1281" y="-151.42" font-family="Arial" font-size="10.00" fill="#172b3a">MQTT</text>
</g>
<!-- match&#45;&gt;broker -->
<g id="edge11" class="edge">
<title>match&#45;&gt;broker</title>
<path fill="none" stroke="#526d82" d="M781.08,-109.72C789.06,-111.3 797.23,-112.77 805,-113.92 954.25,-136.04 1131.83,-146.94 1221.69,-151.38"/>
<polygon fill="#526d82" stroke="#526d82" points="1221.68,-153.84 1228.79,-151.73 1221.92,-148.94 1221.68,-153.84"/>
<text text-anchor="middle" x="1023" y="-144.72" font-family="Arial" font-size="9.00" fill="#334e5e">comando display</text>
</g>
<!-- db -->
<g id="node7" class="node">
<title>db</title>
<path fill="#f4f7fb" stroke="#34506b" d="M1075,-86.65C1075,-88.45 1051.69,-89.92 1023,-89.92 994.31,-89.92 971,-88.45 971,-86.65 971,-86.65 971,-57.19 971,-57.19 971,-55.39 994.31,-53.92 1023,-53.92 1051.69,-53.92 1075,-55.39 1075,-57.19 1075,-57.19 1075,-86.65 1075,-86.65"/>
<path fill="none" stroke="#34506b" d="M1075,-86.65C1075,-84.84 1051.69,-83.38 1023,-83.38 994.31,-83.38 971,-84.84 971,-86.65"/>
<text text-anchor="middle" x="1023" y="-69.42" font-family="Arial" font-size="10.00" fill="#172b3a">MySQL</text>
</g>
<!-- match&#45;&gt;db -->
<g id="edge4" class="edge">
<title>match&#45;&gt;db</title>
<path fill="none" stroke="#526d82" d="M781.02,-96.96C825.1,-95.69 890.43,-92.74 947,-85.92 952.46,-85.26 958.11,-84.45 963.76,-83.55"/>
<polygon fill="#526d82" stroke="#526d82" points="964.39,-85.93 970.9,-82.37 963.59,-81.1 964.39,-85.93"/>
<text text-anchor="middle" x="876" y="-98.72" font-family="Arial" font-size="9.00" fill="#334e5e">crea partita LIVE</text>
</g>
<!-- match&#45;&gt;db -->
<g id="edge10" class="edge">
<title>match&#45;&gt;db</title>
<path fill="none" stroke="#526d82" d="M781.19,-80.13C789.08,-78 797.2,-76.15 805,-74.92 858.24,-66.56 919.73,-66.61 963.63,-68.28"/>
<polygon fill="#526d82" stroke="#526d82" points="963.7,-70.73 970.79,-68.57 963.9,-65.84 963.7,-70.73"/>
<text text-anchor="middle" x="876" y="-77.72" font-family="Arial" font-size="9.00" fill="#334e5e">salva evento e aggiorna punteggio</text>
</g>
<!-- match&#45;&gt;db -->
<g id="edge12" class="edge">
<title>match&#45;&gt;db</title>
<path fill="none" stroke="#526d82" d="M750.63,-79.69C764.83,-68.41 784.73,-54.96 805,-48.92 865.49,-30.91 884.59,-39.57 947,-48.92 953.77,-49.94 960.77,-51.44 967.65,-53.2"/>
<polygon fill="#526d82" stroke="#526d82" points="967.08,-55.58 974.48,-55.04 968.36,-50.85 967.08,-55.58"/>
<text text-anchor="middle" x="876" y="-51.72" font-family="Arial" font-size="9.00" fill="#334e5e">fine automatica al limite</text>
</g>
<!-- edgeNode&#45;&gt;broker -->
<g id="edge8" class="edge">
<title>edgeNode&#45;&gt;broker</title>
<path fill="none" stroke="#526d82" d="M1075.29,-203.74C1111.64,-196.31 1161.47,-185.69 1205,-174.92 1210.45,-173.57 1216.09,-172.11 1221.74,-170.61"/>
<polygon fill="#526d82" stroke="#526d82" points="1222.75,-172.87 1228.87,-168.68 1221.48,-168.14 1222.75,-172.87"/>
<text text-anchor="middle" x="1152" y="-200.72" font-family="Arial" font-size="9.00" fill="#334e5e">evento con UUID e valore</text>
</g>
<!-- broker&#45;&gt;match -->
<g id="edge9" class="edge">
<title>broker&#45;&gt;match</title>
<path fill="none" stroke="#526d82" d="M1259.45,-135.79C1224.51,-106.3 1149.97,-49.12 1075,-27.92 959.52,4.73 916.7,13.95 805,-29.92 782.13,-38.91 761.86,-58.36 748.18,-74.17"/>
<polygon fill="#526d82" stroke="#526d82" points="746.08,-72.87 743.45,-79.8 749.83,-76.02 746.08,-72.87"/>
<text text-anchor="middle" x="1023" y="-30.72" font-family="Arial" font-size="9.00" fill="#334e5e">QoS 1</text>
</g>
</g>
</svg>
