<?xml version="1.0" encoding="UTF-8" standalone="no"?>
<!DOCTYPE svg PUBLIC "-//W3C//DTD SVG 1.1//EN"
 "http://www.w3.org/Graphics/SVG/1.1/DTD/svg11.dtd">
<!-- Generated by graphviz version 2.42.4 (0)
 -->
<!-- Title: G Pages: 1 -->
<svg width="1075pt" height="282pt"
 viewBox="0.00 0.00 1075.00 282.14" xmlns="http://www.w3.org/2000/svg" xmlns:xlink="http://www.w3.org/1999/xlink">
<g id="graph0" class="graph" transform="scale(1 1) rotate(0) translate(18 264.14)">
<title>G</title>
<polygon fill="white" stroke="transparent" points="-18,18 -18,-264.14 1057,-264.14 1057,18 -18,18"/>
<!-- sensor -->
<g id="node1" class="node">
<title>sensor</title>
<path fill="#f4f7fb" stroke="#34506b" d="M96,-152.14C96,-152.14 12,-152.14 12,-152.14 6,-152.14 0,-146.14 0,-140.14 0,-140.14 0,-128.14 0,-128.14 0,-122.14 6,-116.14 12,-116.14 12,-116.14 96,-116.14 96,-116.14 102,-116.14 108,-122.14 108,-128.14 108,-128.14 108,-140.14 108,-140.14 108,-146.14 102,-152.14 96,-152.14"/>
<text text-anchor="middle" x="54" y="-131.64" font-family="Arial" font-size="10.00" fill="#172b3a">Sensore simulato</text>
</g>
<!-- edgeNode -->
<g id="node2" class="node">
<title>edgeNode</title>
<path fill="#f4f7fb" stroke="#34506b" d="M280,-152.14C280,-152.14 196,-152.14 196,-152.14 190,-152.14 184,-146.14 184,-140.14 184,-140.14 184,-128.14 184,-128.14 184,-122.14 190,-116.14 196,-116.14 196,-116.14 280,-116.14 280,-116.14 286,-116.14 292,-122.14 292,-128.14 292,-128.14 292,-140.14 292,-140.14 292,-146.14 286,-152.14 280,-152.14"/>
<text text-anchor="middle" x="238" y="-131.64" font-family="Arial" font-size="10.00" fill="#172b3a">Edge Service</text>
</g>
<!-- sensor&#45;&gt;edgeNode -->
<g id="edge1" class="edge">
<title>sensor&#45;&gt;edgeNode</title>
<path fill="none" stroke="#526d82" d="M108.13,-134.14C129.62,-134.14 154.54,-134.14 176.71,-134.14"/>
<polygon fill="#526d82" stroke="#526d82" points="176.8,-136.59 183.8,-134.14 176.8,-131.69 176.8,-136.59"/>
<text text-anchor="middle" x="146" y="-136.94" font-family="Arial" font-size="9.00" fill="#334e5e">evento</text>
</g>
<!-- edgeNode&#45;&gt;edgeNode -->
<g id="edge5" class="edge">
<title>edgeNode&#45;&gt;edgeNode</title>
<path fill="none" stroke="#526d82" d="M223.49,-152.34C217.08,-167.84 221.92,-184.14 238,-184.14 251.69,-184.14 257.24,-172.32 254.62,-159.24"/>
<polygon fill="#526d82" stroke="#526d82" points="256.9,-158.32 252.51,-152.34 252.22,-159.75 256.9,-158.32"/>
<text text-anchor="middle" x="238" y="-186.94" font-family="Arial" font-size="9.00" fill="#334e5e">ritorno online</text>
</g>
<!-- queue -->
<g id="node3" class="node">
<title>queue</title>
<polygon fill="#f4f7fb" stroke="#34506b" points="562,-246.14 460,-246.14 460,-210.14 568,-210.14 568,-240.14 562,-246.14"/>
<polyline fill="none" stroke="#34506b" points="562,-246.14 562,-240.14 "/>
<polyline fill="none" stroke="#34506b" points="568,-240.14 562,-240.14 "/>
<text text-anchor="middle" x="514" y="-225.64" font-family="Arial" font-size="10.00" fill="#172b3a">offline&#45;queue.json</text>
</g>
<!-- edgeNode&#45;&gt;queue -->
<g id="edge4" class="edge">
<title>edgeNode&#45;&gt;queue</title>
<path fill="none" stroke="#526d82" d="M249.98,-152.31C262.99,-171.97 286.65,-202.36 316,-216.14 358.58,-236.12 412.13,-238.12 452.65,-235.68"/>
<polygon fill="#526d82" stroke="#526d82" points="452.98,-238.12 459.8,-235.2 452.65,-233.23 452.98,-238.12"/>
<text text-anchor="middle" x="376" y="-238.94" font-family="Arial" font-size="9.00" fill="#334e5e">salva PENDING</text>
</g>
<!-- edgeNode&#45;&gt;queue -->
<g id="edge10" class="edge">
<title>edgeNode&#45;&gt;queue</title>
<path fill="none" stroke="#526d82" d="M291.51,-152.15C337.81,-168.03 405.24,-191.17 453.52,-207.73"/>
<polygon fill="#526d82" stroke="#526d82" points="452.79,-210.07 460.21,-210.02 454.38,-205.43 452.79,-210.07"/>
<text text-anchor="middle" x="376" y="-202.94" font-family="Arial" font-size="9.00" fill="#334e5e">rimuove evento sincronizzato</text>
</g>
<!-- broker -->
<g id="node4" class="node">
<title>broker</title>
<path fill="#f4f7fb" stroke="#34506b" d="M556,-106.14C556,-106.14 472,-106.14 472,-106.14 466,-106.14 460,-100.14 460,-94.14 460,-94.14 460,-82.14 460,-82.14 460,-76.14 466,-70.14 472,-70.14 472,-70.14 556,-70.14 556,-70.14 562,-70.14 568,-76.14 568,-82.14 568,-82.14 568,-94.14 568,-94.14 568,-100.14 562,-106.14 556,-106.14"/>
<text text-anchor="middle" x="514" y="-85.64" font-family="Arial" font-size="10.00" fill="#172b3a">Broker MQTT</text>
</g>
<!-- edgeNode&#45;&gt;broker -->
<g id="edge2" class="edge">
<title>edgeNode&#45;&gt;broker</title>
<path fill="none" stroke="#526d82" d="M292.01,-135.95C332.11,-136.11 388.22,-133.74 436,-122.14 448.23,-119.17 460.94,-114.35 472.43,-109.26"/>
<polygon fill="#526d82" stroke="#526d82" points="473.68,-111.38 479.04,-106.25 471.65,-106.92 473.68,-111.38"/>
<text text-anchor="middle" x="376" y="-137.94" font-family="Arial" font-size="9.00" fill="#334e5e">publish</text>
</g>
<!-- edgeNode&#45;&gt;broker -->
<g id="edge6" class="edge">
<title>edgeNode&#45;&gt;broker</title>
<path fill="none" stroke="#526d82" d="M292.13,-116.96C300.07,-114.77 308.21,-112.74 316,-111.14 361.4,-101.78 413.53,-95.9 452.75,-92.43"/>
<polygon fill="#526d82" stroke="#526d82" points="453.16,-94.86 459.92,-91.81 452.74,-89.98 453.16,-94.86"/>
<text text-anchor="middle" x="376" y="-113.94" font-family="Arial" font-size="9.00" fill="#334e5e">ripubblica SYNCED</text>
</g>
<!-- edgeNode&#45;&gt;broker -->
<g id="edge11" class="edge">
<title>edgeNode&#45;&gt;broker</title>
<path fill="none" stroke="#526d82" d="M256.01,-116.07C270.44,-102.15 292.51,-83.99 316,-76.14 360.05,-61.4 412.69,-65.64 452.47,-72.88"/>
<polygon fill="#526d82" stroke="#526d82" points="452.41,-75.37 459.74,-74.27 453.32,-70.55 452.41,-75.37"/>
<text text-anchor="middle" x="376" y="-78.94" font-family="Arial" font-size="9.00" fill="#334e5e">heartbeat queue_size=0</text>
</g>
<!-- broker&#45;&gt;edgeNode -->
<g id="edge3" class="edge">
<title>broker&#45;&gt;edgeNode</title>
<path fill="none" stroke="#526d82" stroke-dasharray="5,2" d="M499.81,-69.81C486.11,-52.5 462.93,-27.66 436,-17.14 386.32,2.27 362.95,8.17 316,-17.14 280.09,-36.49 258.17,-80.73 247.34,-108.93"/>
<polygon fill="#526d82" stroke="#526d82" points="244.95,-108.31 244.82,-115.72 249.55,-110.01 244.95,-108.31"/>
<text text-anchor="middle" x="376" y="-19.94" font-family="Arial" font-size="9.00" fill="#334e5e">connessione assente</text>
</g>
<!-- match -->
<g id="node5" class="node">
<title>match</title>
<path fill="#f4f7fb" stroke="#34506b" d="M765,-106.14C765,-106.14 681,-106.14 681,-106.14 675,-106.14 669,-100.14 669,-94.14 669,-94.14 669,-82.14 669,-82.14 669,-76.14 675,-70.14 681,-70.14 681,-70.14 765,-70.14 765,-70.14 771,-70.14 777,-76.14 777,-82.14 777,-82.14 777,-94.14 777,-94.14 777,-100.14 771,-106.14 765,-106.14"/>
<text text-anchor="middle" x="723" y="-85.64" font-family="Arial" font-size="10.00" fill="#172b3a">Match Service</text>
</g>
<!-- broker&#45;&gt;match -->
<g id="edge7" class="edge">
<title>broker&#45;&gt;match</title>
<path fill="none" stroke="#526d82" d="M568.04,-88.14C596.65,-88.14 632.07,-88.14 661.73,-88.14"/>
<polygon fill="#526d82" stroke="#526d82" points="661.74,-90.59 668.74,-88.14 661.74,-85.69 661.74,-90.59"/>
<text text-anchor="middle" x="618.5" y="-90.94" font-family="Arial" font-size="9.00" fill="#334e5e">evento UUID</text>
</g>
<!-- broker&#45;&gt;match -->
<g id="edge12" class="edge">
<title>broker&#45;&gt;match</title>
<path fill="none" stroke="#526d82" d="M568.16,-74.04C576.1,-72.42 584.23,-71.03 592,-70.14 615.4,-67.44 621.6,-67.44 645,-70.14 650.47,-70.77 656.11,-71.64 661.74,-72.67"/>
<polygon fill="#526d82" stroke="#526d82" points="661.51,-75.12 668.84,-74.04 662.44,-70.31 661.51,-75.12"/>
<text text-anchor="middle" x="618.5" y="-72.94" font-family="Arial" font-size="9.00" fill="#334e5e">heartbeat</text>
</g>
<!-- db -->
<g id="node6" class="node">
<title>db</title>
<path fill="#f4f7fb" stroke="#34506b" d="M1039,-102.86C1039,-104.67 1014.8,-106.14 985,-106.14 955.2,-106.14 931,-104.67 931,-102.86 931,-102.86 931,-73.41 931,-73.41 931,-71.6 955.2,-70.14 985,-70.14 1014.8,-70.14 1039,-71.6 1039,-73.41 1039,-73.41 1039,-102.86 1039,-102.86"/>
<path fill="none" stroke="#34506b" d="M1039,-102.86C1039,-101.06 1014.8,-99.59 985,-99.59 955.2,-99.59 931,-101.06 931,-102.86"/>
<text text-anchor="middle" x="985" y="-85.64" font-family="Arial" font-size="10.00" fill="#172b3a">MySQL</text>
</g>
<!-- match&#45;&gt;db -->
<g id="edge8" class="edge">
<title>match&#45;&gt;db</title>
<path fill="none" stroke="#526d82" d="M777.33,-96.75C785.25,-97.74 793.32,-98.59 801,-99.14 847.99,-102.48 860.01,-102.48 907,-99.14 912.4,-98.75 917.99,-98.22 923.59,-97.59"/>
<polygon fill="#526d82" stroke="#526d82" points="924.01,-100.01 930.67,-96.75 923.43,-95.14 924.01,-100.01"/>
<text text-anchor="middle" x="854" y="-103.94" font-family="Arial" font-size="9.00" fill="#334e5e">controllo duplicato</text>
</g>
<!-- match&#45;&gt;db -->
<g id="edge9" class="edge">
<title>match&#45;&gt;db</title>
<path fill="none" stroke="#526d82" d="M777.24,-88.14C819.74,-88.14 879.3,-88.14 923.58,-88.14"/>
<polygon fill="#526d82" stroke="#526d82" points="923.83,-90.59 930.83,-88.14 923.83,-85.69 923.83,-90.59"/>
<text text-anchor="middle" x="854" y="-90.94" font-family="Arial" font-size="9.00" fill="#334e5e">salvataggio e punteggio</text>
</g>
<!-- match&#45;&gt;db -->
<g id="edge13" class="edge">
<title>match&#45;&gt;db</title>
<path fill="none" stroke="#526d82" d="M777.16,-74.04C785.1,-72.42 793.23,-71.03 801,-70.14 847.8,-64.74 860.2,-64.74 907,-70.14 912.47,-70.77 918.11,-71.64 923.74,-72.67"/>
<polygon fill="#526d82" stroke="#526d82" points="923.51,-75.12 930.84,-74.04 924.44,-70.31 923.51,-75.12"/>
<text text-anchor="middle" x="854" y="-72.94" font-family="Arial" font-size="9.00" fill="#334e5e">edge ONLINE e last_sync</text>
</g>
</g>
</svg>
