<?xml version="1.0" encoding="UTF-8" standalone="no"?>
<!DOCTYPE svg PUBLIC "-//W3C//DTD SVG 1.1//EN"
 "http://www.w3.org/Graphics/SVG/1.1/DTD/svg11.dtd">
<!-- Generated by graphviz version 2.42.4 (0)
 -->
<!-- Title: G Pages: 1 -->
<svg width="477pt" height="467pt"
 viewBox="0.00 0.00 477.00 467.00" xmlns="http://www.w3.org/2000/svg" xmlns:xlink="http://www.w3.org/1999/xlink">
<g id="graph0" class="graph" transform="scale(1 1) rotate(0) translate(18 449)">
<title>G</title>
<polygon fill="white" stroke="transparent" points="-18,18 -18,-449 459,-449 459,18 -18,18"/>
<g id="clust1" class="cluster">
<title>cluster_host</title>
<path fill="white" stroke="#94afc2" d="M20,-8C20,-8 421,-8 421,-8 427,-8 433,-14 433,-20 433,-20 433,-411 433,-411 433,-417 427,-423 421,-423 421,-423 20,-423 20,-423 14,-423 8,-417 8,-411 8,-411 8,-20 8,-20 8,-14 14,-8 20,-8"/>
<text text-anchor="middle" x="220.5" y="-407.8" font-family="Arial" font-size="14.00">Computer con Docker Desktop</text>
</g>
<!-- browser -->
<g id="node1" class="node">
<title>browser</title>
<path fill="#f4f7fb" stroke="#34506b" d="M353,-392C353,-392 299,-392 299,-392 293,-392 287,-386 287,-380 287,-380 287,-368 287,-368 287,-362 293,-356 299,-356 299,-356 353,-356 353,-356 359,-356 365,-362 365,-368 365,-368 365,-380 365,-380 365,-386 359,-392 353,-392"/>
<text text-anchor="middle" x="326" y="-377" font-family="Arial" font-size="10.00" fill="#172b3a">Browser</text>
<text text-anchor="middle" x="326" y="-366" font-family="Arial" font-size="10.00" fill="#172b3a">localhost:8080</text>
</g>
<!-- frontend -->
<g id="node2" class="node">
<title>frontend</title>
<path fill="#f4f7fb" stroke="#34506b" d="M361.5,-307C361.5,-307 290.5,-307 290.5,-307 284.5,-307 278.5,-301 278.5,-295 278.5,-295 278.5,-283 278.5,-283 278.5,-277 284.5,-271 290.5,-271 290.5,-271 361.5,-271 361.5,-271 367.5,-271 373.5,-277 373.5,-283 373.5,-283 373.5,-295 373.5,-295 373.5,-301 367.5,-307 361.5,-307"/>
<text text-anchor="middle" x="326" y="-292" font-family="Arial" font-size="10.00" fill="#172b3a">Container frontend</text>
<text text-anchor="middle" x="326" y="-281" font-family="Arial" font-size="10.00" fill="#172b3a">Nginx :80</text>
</g>
<!-- browser&#45;&gt;frontend -->
<g id="edge1" class="edge">
<title>browser&#45;&gt;frontend</title>
<path fill="none" stroke="#526d82" d="M326,-355.8C326,-343.78 326,-327.57 326,-314.24"/>
<polygon fill="#526d82" stroke="#526d82" points="328.45,-314.18 326,-307.18 323.55,-314.18 328.45,-314.18"/>
</g>
<!-- gateway -->
<g id="node3" class="node">
<title>gateway</title>
<path fill="#f4f7fb" stroke="#34506b" d="M372.5,-222C372.5,-222 279.5,-222 279.5,-222 273.5,-222 267.5,-216 267.5,-210 267.5,-210 267.5,-198 267.5,-198 267.5,-192 273.5,-186 279.5,-186 279.5,-186 372.5,-186 372.5,-186 378.5,-186 384.5,-192 384.5,-198 384.5,-198 384.5,-210 384.5,-210 384.5,-216 378.5,-222 372.5,-222"/>
<text text-anchor="middle" x="326" y="-207" font-family="Arial" font-size="10.00" fill="#172b3a">Container API Gateway</text>
<text text-anchor="middle" x="326" y="-196" font-family="Arial" font-size="10.00" fill="#172b3a">Node.js :3000</text>
</g>
<!-- frontend&#45;&gt;gateway -->
<g id="edge2" class="edge">
<title>frontend&#45;&gt;gateway</title>
<path fill="none" stroke="#526d82" d="M326,-270.8C326,-258.78 326,-242.57 326,-229.24"/>
<polygon fill="#526d82" stroke="#526d82" points="328.45,-229.18 326,-222.18 323.55,-229.18 328.45,-229.18"/>
</g>
<!-- catalog -->
<g id="node4" class="node">
<title>catalog</title>
<path fill="#f4f7fb" stroke="#34506b" d="M114.5,-137C114.5,-137 27.5,-137 27.5,-137 21.5,-137 15.5,-131 15.5,-125 15.5,-125 15.5,-113 15.5,-113 15.5,-107 21.5,-101 27.5,-101 27.5,-101 114.5,-101 114.5,-101 120.5,-101 126.5,-107 126.5,-113 126.5,-113 126.5,-125 126.5,-125 126.5,-131 120.5,-137 114.5,-137"/>
<text text-anchor="middle" x="71" y="-116.5" font-family="Arial" font-size="10.00" fill="#172b3a">Catalog Service :3001</text>
</g>
<!-- gateway&#45;&gt;catalog -->
<g id="edge3" class="edge">
<title>gateway&#45;&gt;catalog</title>
<path fill="none" stroke="#526d82" d="M273.47,-185.9C231.82,-172.34 173.6,-153.4 130.28,-139.29"/>
<polygon fill="#526d82" stroke="#526d82" points="130.87,-136.91 123.46,-137.07 129.36,-141.57 130.87,-136.91"/>
</g>
<!-- match -->
<g id="node5" class="node">
<title>match</title>
<path fill="#f4f7fb" stroke="#34506b" d="M251.5,-137C251.5,-137 170.5,-137 170.5,-137 164.5,-137 158.5,-131 158.5,-125 158.5,-125 158.5,-113 158.5,-113 158.5,-107 164.5,-101 170.5,-101 170.5,-101 251.5,-101 251.5,-101 257.5,-101 263.5,-107 263.5,-113 263.5,-113 263.5,-125 263.5,-125 263.5,-131 257.5,-137 251.5,-137"/>
<text text-anchor="middle" x="211" y="-116.5" font-family="Arial" font-size="10.00" fill="#172b3a">Match Service :3002</text>
</g>
<!-- gateway&#45;&gt;match -->
<g id="edge4" class="edge">
<title>gateway&#45;&gt;match</title>
<path fill="none" stroke="#526d82" d="M302.17,-185.8C284.29,-172.89 259.69,-155.14 240.55,-141.33"/>
<polygon fill="#526d82" stroke="#526d82" points="241.91,-139.29 234.8,-137.18 239.04,-143.26 241.91,-139.29"/>
</g>
<!-- tournament -->
<g id="node6" class="node">
<title>tournament</title>
<path fill="#f4f7fb" stroke="#34506b" d="M412.5,-137C412.5,-137 307.5,-137 307.5,-137 301.5,-137 295.5,-131 295.5,-125 295.5,-125 295.5,-113 295.5,-113 295.5,-107 301.5,-101 307.5,-101 307.5,-101 412.5,-101 412.5,-101 418.5,-101 424.5,-107 424.5,-113 424.5,-113 424.5,-125 424.5,-125 424.5,-131 418.5,-137 412.5,-137"/>
<text text-anchor="middle" x="360" y="-116.5" font-family="Arial" font-size="10.00" fill="#172b3a">Tournament Service :3003</text>
</g>
<!-- gateway&#45;&gt;tournament -->
<g id="edge5" class="edge">
<title>gateway&#45;&gt;tournament</title>
<path fill="none" stroke="#526d82" d="M333.04,-185.8C338.01,-173.67 344.74,-157.26 350.22,-143.87"/>
<polygon fill="#526d82" stroke="#526d82" points="352.58,-144.58 352.96,-137.18 348.04,-142.72 352.58,-144.58"/>
</g>
<!-- mysql -->
<g id="node8" class="node">
<title>mysql</title>
<path fill="#f4f7fb" stroke="#34506b" d="M248.5,-48.73C248.5,-50.53 231.69,-52 211,-52 190.31,-52 173.5,-50.53 173.5,-48.73 173.5,-48.73 173.5,-19.27 173.5,-19.27 173.5,-17.47 190.31,-16 211,-16 231.69,-16 248.5,-17.47 248.5,-19.27 248.5,-19.27 248.5,-48.73 248.5,-48.73"/>
<path fill="none" stroke="#34506b" d="M248.5,-48.73C248.5,-46.92 231.69,-45.45 211,-45.45 190.31,-45.45 173.5,-46.92 173.5,-48.73"/>
<text text-anchor="middle" x="211" y="-31.5" font-family="Arial" font-size="10.00" fill="#172b3a">MySQL :3306</text>
</g>
<!-- catalog&#45;&gt;mysql -->
<g id="edge6" class="edge">
<title>catalog&#45;&gt;mysql</title>
<path fill="none" stroke="#526d82" d="M100.01,-100.8C122.36,-87.55 153.32,-69.2 176.86,-55.24"/>
<polygon fill="#526d82" stroke="#526d82" points="178.21,-57.29 182.98,-51.61 175.71,-53.07 178.21,-57.29"/>
</g>
<!-- match&#45;&gt;mysql -->
<g id="edge7" class="edge">
<title>match&#45;&gt;mysql</title>
<path fill="none" stroke="#526d82" d="M211,-100.8C211,-88.78 211,-72.57 211,-59.24"/>
<polygon fill="#526d82" stroke="#526d82" points="213.45,-59.18 211,-52.18 208.55,-59.18 213.45,-59.18"/>
</g>
<!-- tournament&#45;&gt;mysql -->
<g id="edge8" class="edge">
<title>tournament&#45;&gt;mysql</title>
<path fill="none" stroke="#526d82" d="M329.13,-100.8C305.08,-87.41 271.67,-68.8 246.52,-54.79"/>
<polygon fill="#526d82" stroke="#526d82" points="247.62,-52.59 240.31,-51.33 245.24,-56.88 247.62,-52.59"/>
</g>
<!-- edgeNode -->
<g id="node7" class="node">
<title>edgeNode</title>
<path fill="#f4f7fb" stroke="#34506b" d="M142,-307C142,-307 66,-307 66,-307 60,-307 54,-301 54,-295 54,-295 54,-283 54,-283 54,-277 60,-271 66,-271 66,-271 142,-271 142,-271 148,-271 154,-277 154,-283 154,-283 154,-295 154,-295 154,-301 148,-307 142,-307"/>
<text text-anchor="middle" x="104" y="-292" font-family="Arial" font-size="10.00" fill="#172b3a">Edge Service :4000</text>
<text text-anchor="middle" x="104" y="-281" font-family="Arial" font-size="10.00" fill="#172b3a">esposto su :8090</text>
</g>
<!-- edgeNode&#45;&gt;catalog -->
<g id="edge9" class="edge">
<title>edgeNode&#45;&gt;catalog</title>
<path fill="none" stroke="#526d82" d="M99.07,-270.74C95.4,-257.48 90.45,-238.69 87,-222 81.54,-195.58 76.97,-164.97 74.13,-144.22"/>
<polygon fill="#526d82" stroke="#526d82" points="76.53,-143.67 73.16,-137.06 71.67,-144.32 76.53,-143.67"/>
<text text-anchor="middle" x="111" y="-201.8" font-family="Arial" font-size="9.00" fill="#334e5e">rete Docker</text>
</g>
<!-- mqtt -->
<g id="node9" class="node">
<title>mqtt</title>
<path fill="#f4f7fb" stroke="#34506b" d="M223,-222C223,-222 163,-222 163,-222 157,-222 151,-216 151,-210 151,-210 151,-198 151,-198 151,-192 157,-186 163,-186 163,-186 223,-186 223,-186 229,-186 235,-192 235,-198 235,-198 235,-210 235,-210 235,-216 229,-222 223,-222"/>
<text text-anchor="middle" x="193" y="-201.5" font-family="Arial" font-size="10.00" fill="#172b3a">Mosquitto :1883</text>
</g>
<!-- edgeNode&#45;&gt;mqtt -->
<g id="edge10" class="edge">
<title>edgeNode&#45;&gt;mqtt</title>
<path fill="none" stroke="#526d82" d="M122.44,-270.8C136.04,-258.12 154.67,-240.75 169.36,-227.04"/>
<polygon fill="#526d82" stroke="#526d82" points="171.13,-228.74 174.58,-222.18 167.79,-225.16 171.13,-228.74"/>
</g>
<!-- mqtt&#45;&gt;match -->
<g id="edge11" class="edge">
<title>mqtt&#45;&gt;match</title>
<path fill="none" stroke="#526d82" d="M196.73,-185.8C199.34,-173.78 202.85,-157.57 205.74,-144.24"/>
<polygon fill="#526d82" stroke="#526d82" points="208.19,-144.54 207.28,-137.18 203.4,-143.5 208.19,-144.54"/>
</g>
</g>
</svg>
