<svg xmlns="http://www.w3.org/2000/svg" viewBox="0 0 640 360" role="img" aria-labelledby="title desc">
  <title id="title">Immagine gioco da tavolo</title>
  <desc id="desc">Gioco da tavolo intelligente stilizzato con dadi e nodi connessi.</desc>
  <rect width="640" height="360" fill="#111820"/>
  <rect x="92" y="62" width="456" height="236" rx="24" fill="#1c2430" stroke="#b79cff" stroke-width="8"/>
  <path d="M132 110h376M132 157h376M132 204h376M132 251h376M178 86v188M244 86v188M310 86v188M376 86v188M442 86v188" stroke="#344154" stroke-width="4"/>
  <g fill="#70d47b">
    <circle cx="178" cy="110" r="13"/>
    <circle cx="310" cy="204" r="13"/>
    <circle cx="442" cy="251" r="13"/>
  </g>
  <g stroke="#40d6c8" stroke-width="5" stroke-linecap="round">
    <line x1="178" y1="110" x2="310" y2="204"/>
    <line x1="310" y1="204" x2="442" y2="251"/>
  </g>
  <rect x="226" y="124" width="74" height="74" rx="12" fill="#eef4ff"/>
  <circle cx="249" cy="147" r="6" fill="#151923"/>
  <circle cx="277" cy="175" r="6" fill="#151923"/>
  <rect x="342" y="142" width="74" height="74" rx="12" fill="#f6bd60"/>
  <circle cx="360" cy="160" r="6" fill="#151923"/>
  <circle cx="379" cy="179" r="6" fill="#151923"/>
  <circle cx="398" cy="198" r="6" fill="#151923"/>
</svg>
