<svg xmlns="http://www.w3.org/2000/svg" viewBox="0 0 900 520" role="img" aria-labelledby="title desc">
  <title id="title">Arena giochi connessi</title>
  <desc id="desc">Illustrazione di arena giochi connessi con tabelloni e linee sensore.</desc>
  <defs>
    <linearGradient id="g" x1="0" y1="0" x2="1" y2="1">
      <stop stop-color="#102235"/><stop offset=".55" stop-color="#07111d"/><stop offset="1" stop-color="#121623"/>
    </linearGradient>
    <filter id="glow"><feGaussianBlur stdDeviation="5" result="b"/><feMerge><feMergeNode in="b"/><feMergeNode in="SourceGraphic"/></feMerge></filter>
  </defs>
  <rect width="900" height="520" rx="34" fill="url(#g)"/>
  <path d="M0 410C180 350 260 456 448 394c185-61 282-62 452 6v120H0z" fill="#0b1a28"/>
  <g opacity=".26" stroke="#19e6d2" stroke-width="2">
    <path d="M80 70h740M80 118h740M80 166h740M80 214h740M80 262h740"/>
    <path d="M110 48v268M210 48v268M310 48v268M410 48v268M510 48v268M610 48v268M710 48v268"/>
  </g>
  <rect x="86" y="78" width="232" height="128" rx="18" fill="#0d1117" stroke="#27a8ff" stroke-width="5"/>
  <rect x="582" y="78" width="232" height="128" rx="18" fill="#0d1117" stroke="#8cff3a" stroke-width="5"/>
  <text x="202" y="158" text-anchor="middle" font-family="Arial, sans-serif" font-size="76" font-weight="900" fill="#8cff3a">05</text>
  <text x="698" y="158" text-anchor="middle" font-family="Arial, sans-serif" font-size="76" font-weight="900" fill="#ff3d57">03</text>
  <circle cx="450" cy="160" r="72" fill="#121f2e" stroke="#f4f8ff" stroke-width="8"/>
  <circle cx="450" cy="160" r="51" fill="#ff3d57"/><circle cx="450" cy="160" r="31" fill="#f4f8ff"/><circle cx="450" cy="160" r="13" fill="#19e6d2" filter="url(#glow)"/>
  <g stroke="#8cff3a" stroke-width="6" stroke-linecap="round" filter="url(#glow)">
    <path d="M268 295c65-54 135-51 206 7" fill="none"/><path d="M434 302c65-59 136-54 205 4" fill="none"/>
  </g>
  <rect x="164" y="300" width="572" height="118" rx="30" fill="#111820" stroke="#26384d" stroke-width="5"/>
  <rect x="210" y="330" width="150" height="50" rx="14" fill="#19e6d2" opacity=".85"/>
  <rect x="376" y="330" width="150" height="50" rx="14" fill="#8cff3a" opacity=".85"/>
  <rect x="542" y="330" width="150" height="50" rx="14" fill="#ffcb45" opacity=".85"/>
  <text x="450" y="462" text-anchor="middle" font-family="Arial, sans-serif" font-size="26" font-weight="800" fill="#97a8bd">LIVE MATCH · MQTT SENSOR STREAM</text>
</svg>
