<svg xmlns="http://www.w3.org/2000/svg" viewBox="0 0 760 430" role="img" aria-labelledby="title desc">
  <title id="title">Palco torneo</title>
  <desc id="desc">Tabellone torneo con podio e classifica.</desc>
  <rect width="760" height="430" rx="28" fill="#080d14"/>
  <rect x="60" y="64" width="260" height="270" rx="22" fill="#101824" stroke="#26384d" stroke-width="4"/>
  <g stroke="#19e6d2" stroke-width="5" fill="none" stroke-linecap="round">
    <path d="M100 110h90v60h80"/><path d="M100 230h90v-60"/><path d="M270 170h40"/>
    <path d="M100 280h90v40h80"/><path d="M100 360h90v-40"/><path d="M270 320h40"/>
  </g>
  <rect x="412" y="86" width="260" height="220" rx="22" fill="#111820" stroke="#8cff3a" stroke-width="6"/>
  <text x="542" y="135" text-anchor="middle" font-family="Arial, sans-serif" font-size="24" font-weight="900" fill="#97a8bd">RANKING</text>
  <g font-family="Arial, sans-serif" font-weight="900">
    <text x="452" y="190" font-size="38" fill="#ffcb45">1</text><text x="502" y="190" font-size="26" fill="#f4f8ff">mario</text><text x="620" y="190" font-size="26" fill="#8cff3a">9</text>
    <text x="452" y="240" font-size="38" fill="#19e6d2">2</text><text x="502" y="240" font-size="26" fill="#f4f8ff">luigi</text><text x="620" y="240" font-size="26" fill="#8cff3a">6</text>
    <text x="452" y="290" font-size="38" fill="#ff3d57">3</text><text x="502" y="290" font-size="26" fill="#f4f8ff">client</text><text x="620" y="290" font-size="26" fill="#8cff3a">3</text>
  </g>
  <path d="M370 368h260" stroke="#ff3d57" stroke-width="22" stroke-linecap="round" opacity=".8"/>
  <path d="M410 342h180" stroke="#8cff3a" stroke-width="16" stroke-linecap="round" opacity=".8"/>
</svg>
